<svg xmlns="http://www.w3.org/2000/svg" xmlns:xlink="http://www.w3.org/1999/xlink" width="300" zoomAndPan="magnify" viewBox="0 0 224.87999 225" height="300" preserveAspectRatio="xMidYMid meet" version="1.0"><defs><clipPath id="6eb48ec281"><path d="M 30.078125 0.0585938 L 194 0.0585938 L 194 224.9375 L 30.078125 224.9375 Z M 30.078125 0.0585938 " clip-rule="nonzero"/></clipPath></defs><g clip-path="url(#6eb48ec281)"><path fill="#fecc09" d="M 112.0625 -0.316406 C 110.734375 -0.316406 109.410156 -0.28125 108.082031 -0.214844 C 106.757812 -0.148438 105.433594 -0.0507812 104.113281 0.0820312 C 102.792969 0.210938 101.476562 0.375 100.164062 0.574219 C 98.851562 0.769531 97.542969 0.996094 96.242188 1.257812 C 94.941406 1.515625 93.648438 1.808594 92.359375 2.132812 C 91.074219 2.457031 89.792969 2.808594 88.523438 3.195312 C 87.253906 3.582031 85.996094 4 84.746094 4.445312 C 83.496094 4.894531 82.257812 5.375 81.03125 5.882812 C 79.804688 6.390625 78.59375 6.929688 77.394531 7.496094 C 76.195312 8.066406 75.011719 8.660156 73.839844 9.289062 C 72.667969 9.914062 71.515625 10.570312 70.375 11.25 C 69.238281 11.933594 68.117188 12.644531 67.015625 13.382812 C 65.910156 14.121094 64.828125 14.882812 63.761719 15.675781 C 62.695312 16.464844 61.648438 17.28125 60.625 18.125 C 59.597656 18.964844 58.59375 19.832031 57.609375 20.726562 C 56.625 21.617188 55.664062 22.53125 54.726562 23.46875 C 53.789062 24.40625 52.875 25.367188 51.980469 26.351562 C 51.089844 27.335938 50.222656 28.339844 49.382812 29.367188 C 48.539062 30.390625 47.722656 31.4375 46.933594 32.503906 C 46.140625 33.570312 45.378906 34.652344 44.640625 35.757812 C 43.902344 36.859375 43.191406 37.980469 42.507812 39.121094 C 41.824219 40.257812 41.171875 41.410156 40.546875 42.582031 C 39.917969 43.753906 39.320312 44.9375 38.753906 46.136719 C 38.1875 47.335938 37.648438 48.550781 37.140625 49.773438 C 36.628906 51 36.152344 52.238281 35.703125 53.488281 C 35.257812 54.738281 34.839844 55.996094 34.453125 57.265625 C 34.066406 58.535156 33.710938 59.816406 33.390625 61.101562 C 33.066406 62.390625 32.773438 63.683594 32.511719 64.984375 C 32.253906 66.285156 32.027344 67.59375 31.828125 68.90625 C 31.632812 70.21875 31.46875 71.535156 31.339844 72.855469 C 31.207031 74.175781 31.109375 75.5 31.042969 76.828125 C 30.976562 78.152344 30.941406 79.476562 30.941406 80.804688 C 30.941406 142.804688 104.910156 217.492188 108.0625 220.636719 L 112.0625 224.636719 L 116.0625 220.636719 C 119.210938 217.492188 193.183594 142.800781 193.183594 80.804688 C 193.183594 79.476562 193.148438 78.152344 193.082031 76.828125 C 193.015625 75.5 192.917969 74.175781 192.785156 72.855469 C 192.65625 71.535156 192.492188 70.21875 192.296875 68.90625 C 192.101562 67.59375 191.871094 66.285156 191.613281 64.984375 C 191.351562 63.683594 191.058594 62.390625 190.738281 61.101562 C 190.414062 59.816406 190.058594 58.535156 189.671875 57.265625 C 189.285156 55.996094 188.867188 54.738281 188.421875 53.488281 C 187.972656 52.238281 187.496094 51 186.984375 49.773438 C 186.476562 48.550781 185.9375 47.335938 185.371094 46.136719 C 184.804688 44.9375 184.207031 43.753906 183.578125 42.582031 C 182.953125 41.410156 182.300781 40.257812 181.617188 39.121094 C 180.933594 37.980469 180.222656 36.859375 179.484375 35.757812 C 178.75 34.652344 177.984375 33.570312 177.191406 32.503906 C 176.402344 31.4375 175.585938 30.390625 174.742188 29.367188 C 173.902344 28.339844 173.035156 27.335938 172.144531 26.351562 C 171.253906 25.367188 170.335938 24.40625 169.398438 23.46875 C 168.460938 22.53125 167.5 21.617188 166.515625 20.726562 C 165.53125 19.832031 164.527344 18.964844 163.503906 18.125 C 162.476562 17.28125 161.429688 16.464844 160.363281 15.675781 C 159.296875 14.882812 158.214844 14.121094 157.109375 13.382812 C 156.007812 12.644531 154.886719 11.933594 153.75 11.25 C 152.609375 10.570312 151.457031 9.914062 150.285156 9.289062 C 149.117188 8.660156 147.929688 8.066406 146.730469 7.496094 C 145.53125 6.929688 144.320312 6.390625 143.09375 5.882812 C 141.867188 5.375 140.628906 4.894531 139.378906 4.445312 C 138.128906 4 136.871094 3.582031 135.601562 3.195312 C 134.332031 2.808594 133.054688 2.457031 131.765625 2.132812 C 130.480469 1.808594 129.183594 1.515625 127.882812 1.257812 C 126.582031 0.996094 125.273438 0.769531 123.960938 0.574219 C 122.648438 0.375 121.332031 0.210938 120.011719 0.0820312 C 118.691406 -0.0507812 117.367188 -0.148438 116.042969 -0.214844 C 114.714844 -0.28125 113.390625 -0.316406 112.0625 -0.316406 Z M 112.0625 124.195312 C 110.640625 124.195312 109.222656 124.128906 107.808594 123.988281 C 106.394531 123.847656 104.992188 123.640625 103.597656 123.363281 C 102.203125 123.085938 100.828125 122.742188 99.46875 122.328125 C 98.105469 121.914062 96.769531 121.4375 95.457031 120.894531 C 94.144531 120.351562 92.863281 119.742188 91.609375 119.074219 C 90.355469 118.402344 89.136719 117.671875 87.957031 116.882812 C 86.773438 116.09375 85.632812 115.25 84.535156 114.347656 C 83.4375 113.445312 82.386719 112.492188 81.378906 111.488281 C 80.375 110.484375 79.421875 109.429688 78.519531 108.332031 C 77.621094 107.234375 76.773438 106.09375 75.984375 104.914062 C 75.195312 103.730469 74.464844 102.511719 73.796875 101.261719 C 73.125 100.007812 72.519531 98.722656 71.972656 97.410156 C 71.429688 96.097656 70.953125 94.761719 70.539062 93.402344 C 70.128906 92.042969 69.78125 90.664062 69.503906 89.269531 C 69.226562 87.875 69.019531 86.472656 68.878906 85.058594 C 68.742188 83.644531 68.671875 82.226562 68.671875 80.804688 C 68.671875 79.382812 68.742188 77.964844 68.878906 76.550781 C 69.019531 75.136719 69.226562 73.734375 69.503906 72.339844 C 69.78125 70.945312 70.128906 69.570312 70.539062 68.210938 C 70.953125 66.851562 71.429688 65.511719 71.972656 64.199219 C 72.519531 62.886719 73.125 61.605469 73.796875 60.351562 C 74.464844 59.097656 75.195312 57.878906 75.984375 56.699219 C 76.773438 55.515625 77.621094 54.375 78.519531 53.277344 C 79.421875 52.179688 80.375 51.128906 81.378906 50.125 C 82.386719 49.117188 83.4375 48.164062 84.535156 47.261719 C 85.632812 46.363281 86.773438 45.515625 87.957031 44.726562 C 89.136719 43.9375 90.355469 43.207031 91.609375 42.539062 C 92.863281 41.867188 94.144531 41.261719 95.457031 40.71875 C 96.769531 40.171875 98.105469 39.695312 99.46875 39.28125 C 100.828125 38.871094 102.203125 38.523438 103.597656 38.246094 C 104.992188 37.972656 106.394531 37.761719 107.808594 37.625 C 109.222656 37.484375 110.640625 37.414062 112.0625 37.414062 C 113.484375 37.414062 114.902344 37.484375 116.316406 37.625 C 117.730469 37.761719 119.132812 37.972656 120.527344 38.246094 C 121.921875 38.523438 123.296875 38.871094 124.660156 39.28125 C 126.019531 39.695312 127.355469 40.171875 128.667969 40.71875 C 129.980469 41.261719 131.265625 41.867188 132.515625 42.539062 C 133.769531 43.207031 134.988281 43.9375 136.167969 44.726562 C 137.351562 45.515625 138.492188 46.363281 139.589844 47.261719 C 140.6875 48.164062 141.738281 49.117188 142.746094 50.125 C 143.75 51.128906 144.703125 52.179688 145.605469 53.277344 C 146.507812 54.375 147.351562 55.515625 148.140625 56.699219 C 148.929688 57.878906 149.660156 59.097656 150.332031 60.351562 C 151 61.605469 151.605469 62.886719 152.152344 64.199219 C 152.695312 65.511719 153.171875 66.851562 153.585938 68.210938 C 153.996094 69.570312 154.34375 70.945312 154.621094 72.339844 C 154.898438 73.734375 155.105469 75.136719 155.246094 76.550781 C 155.382812 77.964844 155.453125 79.382812 155.453125 80.804688 C 155.453125 82.226562 155.382812 83.644531 155.242188 85.058594 C 155.101562 86.472656 154.890625 87.875 154.613281 89.265625 C 154.332031 90.660156 153.988281 92.035156 153.574219 93.394531 C 153.160156 94.753906 152.683594 96.089844 152.136719 97.402344 C 151.59375 98.714844 150.988281 99.996094 150.316406 101.25 C 149.644531 102.503906 148.914062 103.71875 148.125 104.902344 C 147.335938 106.082031 146.492188 107.222656 145.589844 108.320312 C 144.6875 109.417969 143.734375 110.46875 142.730469 111.472656 C 141.726562 112.476562 140.675781 113.429688 139.578125 114.332031 C 138.480469 115.234375 137.339844 116.078125 136.15625 116.871094 C 134.976562 117.660156 133.761719 118.390625 132.507812 119.058594 C 131.253906 119.730469 129.972656 120.335938 128.660156 120.882812 C 127.347656 121.425781 126.011719 121.902344 124.652344 122.316406 C 123.292969 122.730469 121.917969 123.078125 120.523438 123.355469 C 119.132812 123.632812 117.726562 123.84375 116.3125 123.984375 C 114.902344 124.125 113.484375 124.195312 112.0625 124.195312 Z M 112.0625 124.195312 " fill-opacity="1" fill-rule="nonzero"/></g></svg>