<svg xmlns="http://www.w3.org/2000/svg" xmlns:xlink="http://www.w3.org/1999/xlink" width="300" zoomAndPan="magnify" viewBox="0 0 224.87999 225" height="300" preserveAspectRatio="xMidYMid meet" version="1.0"><defs><clipPath id="2df7dfc6b9"><path d="M 35 82 L 190 82 L 190 192.660156 L 35 192.660156 Z M 35 82 " clip-rule="nonzero"/></clipPath><clipPath id="56dd0e333b"><path d="M 6 32.246094 L 219 32.246094 L 219 112 L 6 112 Z M 6 32.246094 " clip-rule="nonzero"/></clipPath></defs><path fill="#fecc09" d="M 112.445312 127.707031 C 111.738281 127.707031 111.03125 127.738281 110.328125 127.808594 C 109.625 127.878906 108.929688 127.980469 108.234375 128.117188 C 107.542969 128.253906 106.859375 128.425781 106.179688 128.628906 C 105.503906 128.835938 104.839844 129.074219 104.1875 129.34375 C 103.535156 129.613281 102.898438 129.914062 102.273438 130.246094 C 101.652344 130.578125 101.046875 130.941406 100.457031 131.335938 C 99.871094 131.726562 99.304688 132.148438 98.757812 132.59375 C 98.210938 133.042969 97.6875 133.515625 97.1875 134.015625 C 96.6875 134.515625 96.214844 135.039062 95.765625 135.585938 C 95.320312 136.132812 94.898438 136.699219 94.507812 137.285156 C 94.113281 137.875 93.75 138.480469 93.417969 139.101562 C 93.085938 139.726562 92.785156 140.363281 92.515625 141.015625 C 92.246094 141.667969 92.007812 142.332031 91.800781 143.011719 C 91.597656 143.6875 91.425781 144.371094 91.289062 145.0625 C 91.152344 145.757812 91.050781 146.453125 90.980469 147.15625 C 90.910156 147.859375 90.878906 148.566406 90.878906 149.273438 C 90.878906 161.195312 100.519531 170.9375 112.445312 170.9375 C 124.371094 170.9375 134.011719 161.195312 134.011719 149.273438 C 134.011719 148.566406 133.976562 147.859375 133.90625 147.15625 C 133.839844 146.453125 133.734375 145.757812 133.597656 145.0625 C 133.460938 144.371094 133.289062 143.6875 133.085938 143.011719 C 132.882812 142.332031 132.644531 141.667969 132.375 141.015625 C 132.105469 140.363281 131.800781 139.726562 131.46875 139.101562 C 131.136719 138.480469 130.773438 137.875 130.382812 137.285156 C 129.988281 136.699219 129.570312 136.132812 129.121094 135.585938 C 128.671875 135.039062 128.199219 134.515625 127.699219 134.015625 C 127.199219 133.519531 126.675781 133.042969 126.128906 132.597656 C 125.585938 132.148438 125.019531 131.726562 124.429688 131.335938 C 123.84375 130.941406 123.238281 130.582031 122.613281 130.246094 C 121.992188 129.914062 121.351562 129.613281 120.699219 129.34375 C 120.046875 129.074219 119.382812 128.835938 118.707031 128.632812 C 118.03125 128.425781 117.347656 128.253906 116.652344 128.117188 C 115.960938 127.980469 115.261719 127.878906 114.558594 127.808594 C 113.855469 127.738281 113.152344 127.707031 112.445312 127.707031 Z M 112.445312 127.707031 " fill-opacity="1" fill-rule="evenodd"/><g clip-path="url(#2df7dfc6b9)"><path fill="#fecc09" d="M 136.390625 89.867188 C 131.621094 98.152344 131.929688 98.054688 125.714844 97.847656 C 121.464844 97.742188 116.894531 97.636719 112.445312 97.636719 C 107.882812 97.636719 103.425781 97.742188 99.175781 97.847656 C 92.851562 98.054688 93.160156 98.15625 88.390625 89.867188 C 82.898438 80.433594 65.589844 79.808594 65.589844 93.492188 C 65.589844 117.855469 35.835938 122.519531 35.835938 175.695312 C 35.835938 187.71875 41.539062 192.695312 53.355469 192.695312 L 171.425781 192.695312 C 183.347656 192.695312 189.046875 187.71875 189.046875 175.695312 C 189.046875 122.519531 159.195312 117.855469 159.195312 93.492188 C 159.191406 79.8125 141.882812 80.4375 136.390625 89.867188 Z M 112.445312 183.265625 C 93.679688 183.265625 78.542969 168.023438 78.542969 149.265625 C 78.542969 130.605469 93.679688 115.363281 112.445312 115.363281 C 131.207031 115.363281 146.339844 130.605469 146.339844 149.265625 C 146.339844 168.03125 131.207031 183.269531 112.445312 183.269531 Z M 112.445312 183.265625 " fill-opacity="1" fill-rule="evenodd"/></g><g clip-path="url(#56dd0e333b)"><path fill="#fecc09" d="M 176.570312 40.578125 C 158.878906 35.054688 135.660156 32.292969 112.441406 32.292969 C 89.226562 32.292969 66.007812 35.054688 48.207031 40.578125 C 10.175781 52.519531 0 72.53125 10.726562 107.136719 C 14.152344 118.082031 57.9375 108.246094 55.503906 90.113281 C 53.402344 75.515625 50.527344 69.878906 68.882812 65.011719 C 80.710938 61.917969 96.523438 60.371094 112.441406 60.371094 C 128.253906 60.371094 144.175781 61.917969 156.003906 65.011719 C 174.246094 69.878906 171.375 75.515625 169.382812 90.113281 C 166.839844 108.246094 210.734375 118.082031 214.050781 107.136719 C 224.886719 72.53125 214.714844 52.519531 176.570312 40.578125 Z M 176.570312 40.578125 " fill-opacity="1" fill-rule="evenodd"/></g></svg>