<svg xmlns="http://www.w3.org/2000/svg" xmlns:xlink="http://www.w3.org/1999/xlink" width="300" zoomAndPan="magnify" viewBox="0 0 224.87999 225" height="300" preserveAspectRatio="xMidYMid meet" version="1.0"><defs><clipPath id="298518171c"><path d="M 87 3.152344 L 137 3.152344 L 137 21 L 87 21 Z M 87 3.152344 " clip-rule="nonzero"/></clipPath><clipPath id="cefadf68e0"><path d="M 143 3.152344 L 224 3.152344 L 224 80 L 143 80 Z M 143 3.152344 " clip-rule="nonzero"/></clipPath><clipPath id="8365958109"><path d="M 0 3.152344 L 81 3.152344 L 81 80 L 0 80 Z M 0 3.152344 " clip-rule="nonzero"/></clipPath></defs><g clip-path="url(#298518171c)"><path fill="#fecc09" d="M 107.089844 3.988281 C 111.726562 3.960938 116.371094 3.980469 121.007812 3.980469 C 123.53125 3.976562 126.230469 3.777344 128.71875 4.089844 C 129.761719 4.21875 130.792969 4.609375 131.703125 5.125 C 133.753906 6.285156 135.210938 8.109375 135.847656 10.378906 L 135.902344 10.589844 C 135.972656 10.828125 136.03125 11.046875 136.058594 11.296875 C 136.300781 13.449219 135.542969 15.914062 134.191406 17.601562 C 132.957031 19.144531 130.859375 20.222656 128.890625 20.425781 L 128.714844 20.445312 C 127.339844 20.597656 125.953125 20.457031 124.570312 20.441406 C 122.0625 20.414062 119.554688 20.410156 117.046875 20.394531 C 112.472656 20.414062 107.894531 20.355469 103.316406 20.417969 C 101.363281 20.441406 99.410156 20.53125 97.457031 20.546875 C 96.574219 20.554688 95.625 20.628906 94.757812 20.464844 L 94.597656 20.429688 C 93.144531 20.164062 91.695312 19.4375 90.617188 18.421875 C 88.796875 16.703125 87.945312 14.503906 87.90625 12.027344 C 87.871094 9.980469 88.800781 7.980469 90.234375 6.542969 C 91.273438 5.5 92.515625 4.773438 93.933594 4.398438 C 95.828125 3.894531 97.9375 4.039062 99.886719 4.03125 C 102.285156 4.015625 104.6875 4.003906 107.089844 3.988281 Z M 107.089844 3.988281 " fill-opacity="1" fill-rule="nonzero"/></g><g clip-path="url(#cefadf68e0)"><path fill="#fecc09" d="M 178.023438 3.761719 C 181.796875 3.46875 185.742188 3.871094 189.4375 4.605469 C 200.210938 6.746094 210.285156 13.464844 216.359375 22.628906 C 222.316406 31.613281 224.84375 43.203125 222.675781 53.816406 C 220.511719 64.421875 214.550781 73.71875 205.496094 79.730469 C 204.351562 78.492188 203.597656 76.421875 202.808594 74.925781 C 201.8125 73.039062 200.757812 71.101562 199.59375 69.3125 L 199.414062 69.023438 C 188.925781 52.292969 173.773438 38.90625 155.859375 30.582031 C 153.183594 29.335938 150.449219 28.199219 147.660156 27.222656 C 146.425781 26.792969 145.160156 26.308594 143.882812 26.023438 L 143.785156 26 C 145.070312 22.847656 147.261719 19.839844 149.519531 17.3125 C 156.695312 9.285156 167.328125 4.386719 178.023438 3.761719 Z M 178.023438 3.761719 " fill-opacity="1" fill-rule="nonzero"/></g><g clip-path="url(#8365958109)"><path fill="#fecc09" d="M 40.671875 3.765625 C 48.914062 3.164062 57.238281 5.109375 64.394531 9.207031 C 70.210938 12.535156 75.078125 17.046875 78.550781 22.789062 C 79.09375 23.6875 79.953125 24.878906 80.226562 25.886719 C 76.53125 27.4375 72.683594 28.582031 69.046875 30.277344 C 63.148438 33.019531 57.691406 36.34375 52.410156 40.128906 C 49.246094 42.402344 46.132812 44.714844 43.214844 47.308594 C 36.878906 52.941406 31.53125 59.460938 26.625 66.335938 L 18.785156 79.53125 C 16.957031 78.523438 15.414062 77.289062 13.84375 75.917969 C 6.183594 69.242188 1.421875 59.351562 0.738281 49.230469 C 0.0117188 38.394531 3.105469 27.332031 10.355469 19.074219 C 18.203125 10.132812 28.746094 4.566406 40.671875 3.765625 Z M 40.671875 3.765625 " fill-opacity="1" fill-rule="nonzero"/></g><path fill="#fecc09" d="M 110.074219 29.570312 L 119.40625 29.859375 C 135.441406 31.109375 151.605469 36.933594 164.863281 46 C 169.722656 49.320312 174.171875 53.125 178.332031 57.28125 C 180.015625 58.960938 181.742188 60.65625 183.28125 62.472656 C 199.453125 81.550781 207.859375 106.257812 205.78125 131.261719 C 204.386719 148.019531 198.363281 164.742188 188.53125 178.40625 C 183.632812 185.214844 177.894531 191.265625 171.511719 196.6875 L 177.488281 205.679688 C 178.773438 208.082031 178.75 211.089844 177.984375 213.648438 C 177.605469 214.914062 177.144531 215.925781 176.390625 217.015625 C 175.867188 217.769531 175.203125 218.464844 174.484375 219.035156 C 172.148438 220.882812 168.820312 221.71875 165.894531 221.347656 C 164.269531 221.144531 162.601562 220.632812 161.222656 219.726562 C 159.601562 218.660156 158.339844 216.949219 157.039062 215.519531 C 155.15625 213.453125 153.238281 211.429688 151.507812 209.230469 C 139.5625 214.671875 126.921875 217.886719 113.785156 218.269531 C 110.957031 218.371094 108.089844 218.164062 105.269531 217.929688 C 93.851562 216.980469 83.128906 214.085938 72.71875 209.324219 C 71.890625 209.964844 71.140625 211.054688 70.441406 211.855469 C 69.070312 213.425781 67.667969 214.957031 66.242188 216.472656 C 65.242188 217.535156 64.265625 218.636719 63.085938 219.496094 C 60.957031 221.046875 57.542969 221.851562 54.945312 221.410156 C 54.363281 221.3125 53.851562 221.199219 53.289062 221.035156 C 51.125 220.410156 48.960938 218.835938 47.621094 217.023438 C 45.96875 214.789062 45.234375 211.84375 45.648438 209.089844 L 45.683594 208.882812 C 46.132812 205.726562 48.289062 203.09375 49.984375 200.5 C 50.890625 199.113281 51.753906 197.664062 52.753906 196.34375 L 46.570312 191.0625 C 36.019531 180.960938 27.640625 167.964844 22.988281 154.105469 C 19.839844 144.738281 18.308594 134.964844 18.101562 125.101562 C 17.753906 108.4375 22.089844 91.9375 30.371094 77.472656 C 31.882812 74.828125 33.605469 72.304688 35.359375 69.820312 C 37.945312 66.164062 40.75 62.550781 43.859375 59.328125 C 48.527344 54.492188 53.746094 49.910156 59.285156 46.097656 C 73.898438 36.042969 92.324219 29.875 110.074219 29.570312 Z M 107.773438 48.410156 C 93 49.226562 79.25 54.417969 67.320312 63.117188 C 63.371094 65.996094 59.613281 69.199219 56.347656 72.839844 C 46.289062 84.050781 39.398438 97.734375 37.246094 112.710938 C 36.46875 118.117188 36.347656 123.824219 36.65625 129.273438 C 36.84375 132.613281 37.398438 135.890625 38.058594 139.164062 C 41.203125 154.757812 49.175781 169.246094 61.105469 179.859375 C 72.328125 189.84375 85.878906 196.574219 100.785156 198.863281 C 106.019531 199.667969 111.261719 199.828125 116.546875 199.558594 C 133.964844 198.242188 150.546875 191.253906 163.351562 179.3125 C 165.289062 177.507812 167.179688 175.671875 168.902344 173.65625 C 179.0625 161.746094 185.613281 146.617188 187.121094 131.011719 C 187.570312 126.347656 187.507812 121.78125 187.125 117.117188 C 185.542969 97.933594 175.789062 79.089844 161.125 66.648438 C 151.464844 58.445312 139.929688 52.417969 127.480469 49.8125 C 123.933594 49.070312 120.203125 48.6875 116.59375 48.488281 C 113.695312 48.324219 110.667969 48.175781 107.773438 48.410156 Z M 107.773438 48.410156 " fill-opacity="1" fill-rule="nonzero"/><path fill="#fecc09" d="M 111.070312 67.476562 L 112.253906 67.429688 C 113.804688 67.449219 115.351562 68.222656 116.40625 69.34375 C 117.105469 70.089844 117.601562 71.136719 117.738281 72.148438 C 117.988281 74.023438 117.84375 76.105469 117.84375 77.996094 C 117.847656 81.667969 117.855469 85.34375 117.832031 89.015625 C 117.777344 97.023438 118.003906 105.058594 117.820312 113.0625 C 118.554688 113.515625 119.269531 113.96875 119.917969 114.539062 C 121.910156 116.292969 123.644531 119.183594 123.820312 121.886719 C 123.898438 123.0625 123.910156 124.214844 123.707031 125.382812 C 123.128906 128.691406 121.269531 131.195312 118.53125 133.0625 C 115.304688 135.269531 112.046875 135.386719 108.34375 134.679688 L 85.886719 155.339844 C 85.140625 156.015625 84.355469 156.847656 83.476562 157.347656 C 82.21875 158.058594 80.789062 158.164062 79.414062 157.742188 C 77.957031 157.296875 76.738281 156.21875 76.035156 154.871094 C 75.410156 153.679688 75.109375 151.820312 75.539062 150.523438 L 75.59375 150.367188 C 75.804688 149.757812 76.058594 149.222656 76.503906 148.746094 C 77.242188 147.953125 78.210938 147.359375 79.011719 146.617188 C 81.371094 144.425781 83.683594 142.183594 86.027344 139.96875 C 88.773438 137.375 91.53125 134.789062 94.265625 132.183594 C 96.359375 130.1875 98.425781 128.042969 100.738281 126.300781 C 100.195312 124.679688 100.054688 122.832031 100.335938 121.144531 L 100.367188 120.960938 C 100.453125 120.4375 100.582031 119.957031 100.753906 119.457031 C 101.625 116.875 103.636719 114.367188 106.113281 113.160156 C 106.339844 113.050781 106.265625 113.144531 106.265625 112.847656 C 106.265625 104.285156 106.304688 95.71875 106.261719 87.15625 C 106.242188 84.035156 106.222656 80.910156 106.214844 77.789062 C 106.210938 75.960938 106.132812 74.09375 106.277344 72.269531 C 106.328125 71.613281 106.535156 70.96875 106.859375 70.394531 C 107.773438 68.765625 109.3125 67.917969 111.070312 67.476562 Z M 111.070312 67.476562 " fill-opacity="1" fill-rule="nonzero"/></svg>