<svg xmlns="http://www.w3.org/2000/svg" xmlns:xlink="http://www.w3.org/1999/xlink" width="300" zoomAndPan="magnify" viewBox="0 0 224.87999 225" height="300" preserveAspectRatio="xMidYMid meet" version="1.0"><defs><clipPath id="a4613e5743"><path d="M 7 150 L 15 150 L 15 186.242188 L 7 186.242188 Z M 7 150 " clip-rule="nonzero"/></clipPath><clipPath id="8173f3703c"><path d="M 98 155 L 106 155 L 106 186.242188 L 98 186.242188 Z M 98 155 " clip-rule="nonzero"/></clipPath><clipPath id="d1b10f6da4"><path d="M 0 68 L 224.761719 68 L 224.761719 186.242188 L 0 186.242188 Z M 0 68 " clip-rule="nonzero"/></clipPath><clipPath id="2ff6792e69"><path d="M 31 38.570312 L 92 38.570312 L 92 78 L 31 78 Z M 31 38.570312 " clip-rule="nonzero"/></clipPath></defs><g clip-path="url(#a4613e5743)"><path fill="#545454" d="M 7.027344 155.632812 L 7.027344 182.6875 C 7.027344 184.621094 8.609375 186.199219 10.542969 186.199219 C 12.472656 186.199219 14.054688 184.621094 14.054688 182.6875 L 14.054688 150.886719 C 13 151.414062 11.945312 152.292969 11.066406 153.171875 C 9.839844 154.402344 8.433594 155.105469 7.027344 155.632812 Z M 7.027344 155.632812 " fill-opacity="1" fill-rule="nonzero"/></g><g clip-path="url(#8173f3703c)"><path fill="#545454" d="M 98.386719 155.808594 L 98.386719 182.6875 C 98.386719 184.621094 99.964844 186.199219 101.898438 186.199219 C 103.832031 186.199219 105.414062 184.621094 105.414062 182.6875 L 105.414062 155.632812 C 104.359375 155.984375 103.128906 156.335938 101.898438 156.335938 C 100.667969 156.335938 99.4375 156.160156 98.386719 155.808594 Z M 98.386719 155.808594 " fill-opacity="1" fill-rule="nonzero"/></g><g clip-path="url(#d1b10f6da4)"><path fill="#545454" d="M 224.527344 149.128906 C 224.527344 148.957031 224.703125 148.957031 224.703125 148.78125 C 224.703125 148.605469 224.703125 148.605469 224.878906 148.429688 C 224.878906 148.253906 224.878906 148.253906 224.878906 148.078125 C 224.878906 147.902344 224.878906 147.902344 224.878906 147.726562 C 224.878906 147.726562 224.878906 147.550781 224.878906 147.550781 C 224.878906 147.375 224.878906 147.375 224.878906 147.199219 C 224.878906 147.023438 224.878906 147.023438 224.878906 146.847656 C 224.878906 146.671875 224.878906 146.671875 224.703125 146.496094 C 224.703125 146.320312 224.703125 146.320312 224.527344 146.144531 C 224.527344 145.96875 224.351562 145.96875 224.351562 145.792969 C 224.351562 145.617188 224.175781 145.617188 224.175781 145.441406 L 167.957031 69.894531 C 167.957031 69.894531 167.957031 69.894531 167.78125 69.71875 C 167.78125 69.71875 167.605469 69.542969 167.605469 69.542969 C 167.429688 69.367188 167.253906 69.191406 167.078125 69.015625 C 167.078125 69.015625 167.078125 69.015625 166.902344 68.839844 C 166.726562 68.667969 166.375 68.492188 166.023438 68.492188 C 166.023438 68.492188 165.847656 68.492188 165.847656 68.492188 C 165.671875 68.492188 165.320312 68.316406 165.144531 68.316406 C 165.144531 68.316406 165.144531 68.316406 164.96875 68.316406 L 85.734375 68.316406 L 80.113281 75.34375 L 88.546875 75.34375 L 74.492188 92.910156 C 69.921875 89.398438 64.828125 87.464844 59.382812 87.464844 C 58.679688 87.464844 57.976562 87.464844 57.273438 87.640625 L 61.84375 82.195312 C 61.492188 81.84375 60.964844 81.492188 60.613281 81.140625 C 59.382812 79.910156 57.800781 78.855469 56.21875 77.976562 L 0.878906 143.507812 C 0.878906 143.507812 0.878906 143.683594 0.703125 143.683594 C 0.703125 143.859375 0.527344 143.859375 0.527344 144.035156 C 0.527344 144.210938 0.351562 144.210938 0.351562 144.386719 C 0.351562 144.5625 0.175781 144.5625 0.175781 144.738281 C 0.175781 144.914062 0.175781 144.914062 0 145.089844 C 0 145.265625 0 145.265625 0 145.441406 C 0 145.617188 0 145.617188 0 145.792969 C 0 145.792969 0 145.792969 0 145.96875 C 0 146.144531 0 146.144531 0 146.320312 C 0 146.496094 0 146.496094 0 146.671875 C 0 146.847656 0 146.847656 0.175781 147.023438 C 0.175781 147.199219 0.175781 147.199219 0.351562 147.375 C 0.351562 147.550781 0.527344 147.550781 0.527344 147.726562 C 0.527344 147.902344 0.703125 147.902344 0.703125 148.078125 C 0.703125 148.253906 0.878906 148.253906 0.878906 148.429688 C 0.878906 148.429688 1.054688 148.605469 1.054688 148.605469 C 1.054688 148.605469 1.054688 148.605469 1.230469 148.605469 C 1.230469 148.605469 1.230469 148.605469 1.230469 148.78125 C 1.230469 148.78125 1.40625 148.78125 1.40625 148.957031 C 1.582031 148.957031 1.582031 149.128906 1.757812 149.128906 C 1.933594 149.128906 1.933594 149.304688 2.109375 149.304688 C 2.285156 149.304688 2.285156 149.480469 2.460938 149.480469 C 2.636719 149.480469 2.636719 149.480469 2.8125 149.65625 C 2.988281 149.65625 2.988281 149.65625 3.164062 149.65625 C 3.339844 149.65625 3.339844 149.65625 3.515625 149.65625 C 3.515625 149.304688 3.515625 149.304688 3.6875 149.304688 C 3.863281 149.304688 3.863281 149.304688 4.039062 149.304688 C 4.214844 149.304688 4.214844 149.304688 4.390625 149.304688 C 4.566406 149.304688 4.566406 149.304688 4.742188 149.128906 C 4.917969 149.128906 4.917969 149.128906 5.09375 148.957031 C 5.269531 148.957031 5.269531 148.78125 5.445312 148.78125 C 5.621094 148.78125 5.621094 148.605469 5.796875 148.605469 C 5.972656 148.605469 5.972656 148.429688 6.148438 148.429688 C 6.148438 148.429688 6.324219 148.253906 6.324219 148.253906 C 10.015625 144.386719 14.933594 142.277344 20.203125 142.277344 C 25.476562 142.277344 30.394531 144.386719 34.082031 148.253906 C 34.082031 148.253906 34.082031 148.253906 34.257812 148.429688 C 34.257812 148.429688 34.257812 148.429688 34.433594 148.605469 C 34.433594 148.605469 34.609375 148.605469 34.609375 148.78125 C 34.609375 148.78125 34.785156 148.78125 34.785156 148.957031 C 34.785156 148.957031 34.785156 148.957031 34.960938 148.957031 C 35.136719 148.957031 35.136719 149.128906 35.3125 149.128906 C 35.3125 149.128906 35.488281 149.128906 35.488281 149.128906 C 35.488281 149.128906 35.488281 149.128906 35.664062 149.128906 C 35.839844 149.128906 35.839844 149.128906 36.015625 149.304688 C 36.015625 149.304688 36.191406 149.304688 36.191406 149.304688 C 36.367188 149.304688 36.542969 149.304688 36.71875 149.304688 C 36.894531 149.304688 36.894531 149.304688 37.070312 149.304688 C 37.246094 149.304688 37.246094 149.304688 37.421875 149.304688 C 37.421875 149.304688 37.421875 149.304688 37.597656 149.304688 C 37.597656 149.304688 37.773438 149.304688 37.773438 149.304688 C 37.949219 149.304688 37.949219 149.304688 38.125 149.128906 C 38.125 149.128906 38.125 149.128906 38.300781 149.128906 C 38.300781 149.128906 38.476562 149.128906 38.476562 148.957031 C 38.652344 148.957031 38.652344 148.78125 38.828125 148.78125 C 38.828125 148.78125 39.003906 148.78125 39.003906 148.605469 C 39.003906 148.605469 39.179688 148.429688 39.179688 148.429688 C 39.179688 148.429688 39.355469 148.429688 39.355469 148.253906 C 43.042969 144.386719 47.960938 142.277344 53.234375 142.277344 C 58.152344 142.277344 62.894531 144.210938 66.585938 147.726562 C 66.761719 147.902344 66.9375 148.253906 67.113281 148.429688 C 67.816406 149.132812 68.695312 149.480469 69.746094 149.480469 C 70.625 149.480469 71.503906 149.132812 72.207031 148.429688 C 72.382812 148.253906 72.558594 148.078125 72.734375 147.726562 C 76.425781 144.210938 80.992188 142.277344 86.085938 142.277344 C 91.359375 142.277344 96.277344 144.386719 99.964844 148.253906 C 100.140625 148.957031 101.019531 149.304688 101.898438 149.304688 C 102.074219 149.304688 102.25 149.304688 102.425781 149.304688 C 102.601562 149.304688 102.777344 149.304688 102.953125 149.304688 C 104.007812 149.304688 104.886719 148.957031 105.589844 148.078125 L 164.96875 77.625 L 214.339844 144.035156 L 209.066406 144.035156 L 180.78125 107.667969 C 179.550781 106.085938 177.445312 105.910156 175.863281 107.140625 C 174.28125 108.371094 174.105469 110.480469 175.335938 112.0625 L 204.148438 148.957031 C 204.148438 149.128906 204.148438 149.304688 204.148438 149.480469 L 204.148438 182.863281 C 204.148438 184.796875 205.730469 186.375 207.664062 186.375 C 209.59375 186.375 211.175781 184.796875 211.175781 182.863281 L 211.175781 151.0625 L 221.71875 151.0625 C 222.070312 151.0625 222.421875 151.0625 222.597656 150.886719 C 222.597656 150.886719 222.773438 150.886719 222.773438 150.886719 C 223.125 150.710938 223.296875 150.710938 223.648438 150.359375 C 223.648438 150.359375 223.824219 150.183594 223.824219 150.183594 C 224 150.183594 224 150.007812 224.175781 150.007812 C 224.175781 150.007812 224.351562 149.832031 224.351562 149.65625 C 224.351562 149.65625 224.527344 149.480469 224.527344 149.304688 C 224.351562 149.304688 224.527344 149.304688 224.527344 149.128906 Z M 123.15625 75.519531 L 108.925781 93.261719 C 104.007812 89.574219 98.035156 87.289062 91.707031 87.289062 C 90.304688 87.289062 89.074219 87.464844 87.84375 87.640625 L 97.507812 75.519531 Z M 112.265625 100.640625 C 115.953125 96.777344 120.871094 94.667969 126.144531 94.667969 C 130.535156 94.667969 134.578125 96.074219 138.089844 98.882812 L 121.574219 118.5625 C 116.832031 114.695312 111.035156 112.585938 104.886719 112.585938 C 104.007812 112.585938 103.304688 112.585938 102.425781 112.761719 L 111.738281 101.34375 C 111.914062 100.992188 112.089844 100.816406 112.265625 100.640625 Z M 88.371094 118.210938 C 83.628906 114.519531 77.652344 112.414062 71.503906 112.414062 C 70.097656 112.414062 68.695312 112.585938 67.289062 112.761719 L 77.652344 99.9375 C 81.167969 96.25 86.085938 94.316406 91.53125 94.316406 C 96.277344 94.316406 100.84375 95.898438 104.359375 98.707031 L 89.074219 117.507812 C 89.074219 117.683594 88.722656 118.035156 88.371094 118.210938 Z M 59.207031 94.667969 C 63.070312 94.667969 66.761719 96.074219 69.921875 98.53125 L 54.113281 118.210938 C 49.542969 114.519531 44.097656 112.414062 38.476562 112.414062 C 37.597656 112.414062 36.894531 112.414062 36.015625 112.585938 L 46.207031 100.640625 C 50.070312 96.601562 54.464844 94.667969 59.207031 94.667969 Z M 16.867188 135.425781 L 25.125 125.589844 C 25.125 125.589844 25.300781 125.414062 25.300781 125.414062 C 28.988281 121.546875 33.730469 119.441406 38.476562 119.441406 C 42.515625 119.441406 46.382812 120.84375 49.71875 123.65625 L 36.015625 140.699219 C 31.449219 137.183594 25.824219 135.25 20.027344 135.25 C 18.796875 135.25 17.921875 135.25 16.867188 135.425781 Z M 49.191406 135.601562 L 57.449219 125.414062 C 61.140625 121.722656 66.234375 119.441406 71.679688 119.441406 C 76.25 119.441406 80.816406 121.019531 84.328125 123.832031 L 72.03125 139.117188 C 71.152344 139.644531 70.097656 140.347656 69.398438 141.050781 C 64.476562 137.359375 58.855469 135.25 52.707031 135.25 C 51.476562 135.25 50.421875 135.425781 49.191406 135.601562 Z M 102.25 141.226562 C 97.507812 137.359375 91.707031 135.25 85.558594 135.25 C 85.03125 135.25 84.503906 135.25 83.980469 135.25 L 94.167969 122.601562 C 97.332031 120.492188 101.019531 119.265625 104.886719 119.265625 C 109.277344 119.265625 113.492188 120.84375 117.007812 123.65625 Z M 142.484375 93.4375 C 137.738281 89.75 132.117188 87.640625 126.144531 87.640625 C 124.914062 87.640625 123.507812 87.816406 122.277344 87.992188 L 132.292969 75.695312 L 157.589844 75.695312 Z M 142.484375 93.4375 " fill-opacity="1" fill-rule="nonzero"/></g><g clip-path="url(#2ff6792e69)"><path fill="#545454" d="M 70.625 38.625 C 63.421875 38.625 56.746094 41.257812 51.828125 46.179688 C 51.828125 46.179688 51.652344 46.355469 51.652344 46.355469 L 32.503906 69.894531 C 31.273438 71.300781 31.449219 73.410156 32.855469 74.816406 C 34.257812 76.042969 36.367188 76.042969 37.773438 74.640625 C 41.8125 70.421875 46.734375 69.542969 50.070312 69.542969 C 55.691406 69.542969 61.316406 72.003906 65.53125 76.21875 C 66.234375 76.921875 67.113281 77.273438 67.992188 77.273438 C 67.992188 77.273438 68.167969 77.273438 68.167969 77.273438 C 69.222656 77.273438 70.097656 76.746094 70.800781 76.042969 L 90.65625 51.449219 C 91.707031 50.042969 91.707031 48.109375 90.480469 46.703125 C 85.207031 41.609375 78.003906 38.625 70.625 38.625 Z M 67.640625 68.664062 C 62.542969 64.800781 56.394531 62.515625 50.070312 62.515625 C 49.191406 62.515625 48.3125 62.515625 47.4375 62.691406 L 56.921875 51.097656 C 60.4375 47.582031 65.179688 45.652344 70.625 45.652344 C 75.195312 45.652344 79.585938 47.054688 83.101562 49.691406 Z M 67.640625 68.664062 " fill-opacity="1" fill-rule="nonzero"/></g></svg>