<svg xmlns="http://www.w3.org/2000/svg" xmlns:xlink="http://www.w3.org/1999/xlink" width="300" zoomAndPan="magnify" viewBox="0 0 224.87999 225" height="300" preserveAspectRatio="xMidYMid meet" version="1.0"><defs><clipPath id="6504238e2d"><path d="M 15.742188 0.0585938 L 209.136719 0.0585938 L 209.136719 224.9375 L 15.742188 224.9375 Z M 15.742188 0.0585938 " clip-rule="nonzero"/></clipPath></defs><g clip-path="url(#6504238e2d)"><path fill="#545454" d="M 206.90625 197.035156 L 180.992188 197.035156 L 180.992188 13.882812 C 180.992188 12.652344 179.992188 11.652344 178.757812 11.652344 L 137.972656 11.652344 L 137.972656 2.546875 C 137.972656 1.839844 137.640625 1.175781 137.070312 0.753906 C 136.503906 0.328125 135.769531 0.203125 135.097656 0.40625 L 97.613281 11.652344 L 46.128906 11.652344 C 44.890625 11.652344 43.894531 12.652344 43.894531 13.882812 L 43.894531 197.035156 L 17.976562 197.035156 C 16.742188 197.035156 15.742188 198.035156 15.742188 199.269531 C 15.742188 200.503906 16.742188 201.503906 17.976562 201.503906 L 57.753906 201.503906 L 135.09375 224.703125 C 135.304688 224.769531 135.519531 224.800781 135.734375 224.800781 C 136.210938 224.800781 136.679688 224.648438 137.070312 224.355469 C 137.636719 223.9375 137.972656 223.269531 137.972656 222.566406 L 137.972656 201.5 L 206.90625 201.5 C 208.140625 201.5 209.140625 200.5 209.140625 199.269531 C 209.140625 198.035156 208.144531 197.035156 206.90625 197.035156 Z M 133.503906 201.503906 L 133.503906 219.5625 L 122.929688 216.390625 L 102.039062 210.125 L 96.003906 208.3125 L 73.304688 201.503906 L 65.859375 199.269531 L 63.644531 198.605469 L 60.316406 197.605469 L 60.316406 27.503906 L 65.859375 25.84375 L 73.234375 23.628906 L 73.304688 23.609375 L 84.910156 20.125 L 86.324219 19.703125 L 90.363281 18.492188 L 98.273438 16.117188 L 102.039062 14.988281 L 107.933594 13.21875 L 113.164062 11.648438 L 122.929688 8.71875 L 133.503906 5.546875 Z M 48.359375 16.121094 L 82.71875 16.121094 L 57.441406 23.703125 C 57.398438 23.714844 57.363281 23.746094 57.316406 23.761719 C 57.222656 23.796875 57.144531 23.84375 57.054688 23.890625 C 56.902344 23.972656 56.761719 24.0625 56.632812 24.175781 C 56.558594 24.238281 56.488281 24.304688 56.425781 24.378906 C 56.308594 24.507812 56.214844 24.65625 56.132812 24.8125 C 56.089844 24.890625 56.042969 24.960938 56.011719 25.046875 C 55.914062 25.296875 55.851562 25.5625 55.851562 25.84375 L 55.851562 197.035156 L 48.359375 197.035156 Z M 164.566406 197.035156 L 137.972656 197.035156 L 137.972656 28.078125 L 164.566406 28.078125 Z M 166.800781 23.609375 L 137.972656 23.609375 L 137.972656 16.121094 L 176.523438 16.121094 L 176.523438 197.035156 L 169.035156 197.035156 L 169.035156 25.84375 C 169.035156 24.609375 168.035156 23.609375 166.800781 23.609375 Z M 122.929688 112.554688 C 122.929688 116.511719 119.710938 119.730469 115.753906 119.730469 C 112.898438 119.730469 110.441406 118.039062 109.289062 115.617188 L 102.039062 116.523438 L 96.898438 117.164062 C 96.804688 117.175781 96.710938 117.183594 96.617188 117.183594 C 95.507812 117.183594 94.546875 116.355469 94.402344 115.226562 C 94.25 114.003906 95.117188 112.886719 96.34375 112.730469 L 102.035156 112.019531 L 108.71875 111.1875 C 109.359375 107.882812 112.265625 105.382812 115.753906 105.382812 C 119.710938 105.382812 122.929688 108.597656 122.929688 112.554688 Z M 122.929688 112.554688 " fill-opacity="1" fill-rule="nonzero"/></g></svg>