<svg xmlns="http://www.w3.org/2000/svg" xmlns:xlink="http://www.w3.org/1999/xlink" width="300" zoomAndPan="magnify" viewBox="0 0 224.87999 225" height="300" preserveAspectRatio="xMidYMid meet" version="1.0"><defs><clipPath id="af05ab834b"><path d="M 2 0.0585938 L 223 0.0585938 L 223 101 L 2 101 Z M 2 0.0585938 " clip-rule="nonzero"/></clipPath><clipPath id="1b280ac7b1"><path d="M 18 33 L 207 33 L 207 224.9375 L 18 224.9375 Z M 18 33 " clip-rule="nonzero"/></clipPath></defs><g clip-path="url(#af05ab834b)"><path fill="#545454" d="M 175.757812 16.886719 L 175.757812 60.511719 L 153.835938 44.292969 L 153.835938 16.886719 C 153.835938 14.90625 152.234375 13.304688 150.25 13.304688 L 143.410156 13.304688 L 143.410156 12.296875 C 143.410156 9.515625 145.691406 7.25 148.496094 7.25 L 181.058594 7.25 C 183.867188 7.25 186.144531 9.515625 186.144531 12.296875 L 186.144531 13.304688 L 179.339844 13.304688 C 177.359375 13.304688 175.757812 14.90625 175.757812 16.886719 Z M 221.5 94.351562 L 182.921875 65.8125 L 182.921875 20.46875 L 189.726562 20.46875 C 191.707031 20.46875 193.308594 18.863281 193.308594 16.886719 L 193.308594 12.296875 C 193.308594 5.5625 187.808594 0.0859375 181.058594 0.0859375 L 148.496094 0.0859375 C 141.742188 0.0859375 136.246094 5.5625 136.246094 12.296875 L 136.246094 16.886719 C 136.246094 18.863281 137.847656 20.46875 139.828125 20.46875 L 146.667969 20.46875 L 146.667969 38.992188 L 114.695312 15.335938 C 113.429688 14.402344 111.699219 14.402344 110.4375 15.335938 L 3.496094 94.347656 C 1.902344 95.523438 1.566406 97.765625 2.742188 99.359375 C 3.445312 100.3125 4.53125 100.8125 5.628906 100.8125 C 6.363281 100.8125 7.109375 100.585938 7.75 100.113281 L 112.566406 22.671875 L 217.242188 100.105469 C 218.835938 101.289062 221.074219 100.949219 222.25 99.359375 C 223.425781 97.769531 223.089844 95.523438 221.5 94.351562 " fill-opacity="1" fill-rule="nonzero"/></g><g clip-path="url(#1b280ac7b1)"><path fill="#545454" d="M 199.582031 217.75 L 25.207031 217.75 L 25.207031 205.675781 L 199.582031 205.675781 Z M 35.515625 99.019531 L 112.578125 41.886719 L 189.277344 99.011719 L 189.277344 198.511719 L 35.515625 198.511719 Z M 203.164062 198.511719 L 196.445312 198.511719 L 196.445312 97.214844 C 196.445312 96.082031 195.910156 95.019531 195 94.34375 L 114.722656 34.550781 C 113.449219 33.609375 111.714844 33.609375 110.445312 34.550781 L 29.792969 94.339844 C 28.886719 95.011719 28.34375 96.082031 28.34375 97.214844 L 28.34375 198.511719 L 21.625 198.511719 C 19.644531 198.511719 18.042969 200.113281 18.042969 202.09375 L 18.042969 221.332031 C 18.042969 223.308594 19.644531 224.914062 21.625 224.914062 L 203.164062 224.914062 C 205.144531 224.914062 206.746094 223.308594 206.746094 221.332031 L 206.746094 202.09375 C 206.746094 200.113281 205.144531 198.511719 203.164062 198.511719 " fill-opacity="1" fill-rule="nonzero"/></g><path fill="#545454" d="M 150.566406 120.683594 L 147.800781 117.929688 C 146.902344 117.019531 145.703125 116.519531 144.425781 116.519531 C 144.003906 116.519531 143.585938 116.578125 143.183594 116.683594 L 129.847656 103.34375 C 130.273438 101.75 129.855469 99.980469 128.613281 98.734375 L 125.851562 95.972656 L 134.90625 86.914062 L 137.667969 89.671875 C 138.863281 90.875 140.683594 91.335938 142.28125 90.910156 L 155.621094 104.253906 C 155.199219 105.84375 155.613281 107.617188 156.855469 108.863281 L 159.621094 111.628906 Z M 149.71875 168.429688 C 150.816406 169.53125 151.425781 170.996094 151.429688 172.554688 C 151.429688 174.113281 150.816406 175.582031 149.71875 176.683594 C 148.613281 177.789062 147.148438 178.394531 145.585938 178.394531 C 145.570312 178.394531 145.554688 178.394531 145.535156 178.394531 C 143.953125 178.382812 142.480469 177.75 141.386719 176.617188 L 106.421875 140.285156 C 106.410156 140.269531 106.402344 140.246094 106.386719 140.234375 C 106.378906 140.222656 106.359375 140.21875 106.347656 140.203125 L 99.679688 133.273438 C 98.601562 132.207031 89 122.773438 82.539062 120.957031 C 81.316406 120.621094 80.007812 120.453125 78.632812 120.453125 C 78.378906 120.453125 78.121094 120.457031 77.867188 120.46875 C 76.191406 120.539062 74.550781 120.222656 73.078125 119.546875 L 86.023438 106.605469 C 89.09375 103.523438 89.09375 98.519531 86.023438 95.441406 L 79.863281 89.285156 C 83.203125 88.734375 86.75 89.765625 89.277344 92.296875 L 91.980469 94.996094 C 93.894531 96.910156 95.007812 99.472656 95.109375 102.214844 C 95.429688 110.675781 100.980469 120.5625 106.183594 126.355469 C 106.183594 126.355469 149.289062 168.019531 149.71875 168.429688 Z M 93.925781 158.558594 L 75.789062 176.699219 C 74.203125 178.28125 71.425781 178.273438 69.851562 176.699219 C 68.210938 175.0625 68.210938 172.402344 69.851562 170.761719 L 87.964844 152.652344 C 88.777344 151.839844 89.738281 151.121094 90.867188 150.492188 L 96.039062 155.667969 C 95.410156 156.820312 94.710938 157.777344 93.925781 158.558594 Z M 163.160156 105.035156 C 163.261719 104.640625 163.320312 104.234375 163.320312 103.8125 C 163.324219 102.539062 162.828125 101.332031 161.921875 100.421875 L 146.109375 84.609375 C 144.90625 83.40625 143.101562 82.949219 141.496094 83.371094 L 138.273438 80.148438 C 136.410156 78.296875 133.386719 78.300781 131.53125 80.15625 L 119.089844 92.597656 C 117.234375 94.460938 117.238281 97.492188 119.09375 99.34375 L 122.3125 102.5625 C 121.886719 104.160156 122.300781 105.929688 123.546875 107.171875 L 128.964844 112.59375 L 115.832031 125.726562 C 114.382812 124.324219 112.898438 122.890625 111.339844 121.386719 C 107.121094 116.679688 102.507812 108.261719 102.269531 101.945312 C 102.101562 97.394531 100.242188 93.125 97.039062 89.929688 L 94.34375 87.230469 C 88.253906 81.140625 78.660156 80.234375 71.546875 85.078125 C 70.660156 85.675781 70.09375 86.644531 69.992188 87.707031 C 69.890625 88.769531 70.269531 89.816406 71.023438 90.574219 L 80.953125 100.503906 C 81.234375 100.785156 81.234375 101.261719 80.953125 101.542969 L 67.550781 114.945312 L 66.777344 114.171875 C 63.984375 111.375 63.726562 106.675781 64.714844 103.265625 C 65.261719 101.359375 64.167969 99.371094 62.265625 98.824219 C 60.363281 98.28125 58.378906 99.371094 57.828125 101.273438 C 55.910156 107.910156 57.433594 114.960938 61.710938 119.238281 L 65.242188 122.761719 C 65.320312 122.847656 65.410156 122.925781 65.492188 122.996094 C 68.945312 126.1875 73.449219 127.796875 78.183594 127.625 C 79.105469 127.585938 79.914062 127.664062 80.617188 127.859375 C 84.128906 128.847656 91.070312 134.820312 94.570312 138.300781 L 98.832031 142.730469 C 98.453125 143.125 97.207031 144.351562 96.015625 145.511719 L 94.148438 143.644531 C 93.125 142.625 91.597656 142.316406 90.273438 142.859375 C 87.320312 144.050781 84.84375 145.640625 82.898438 147.589844 L 64.785156 165.703125 C 60.355469 170.128906 60.355469 177.339844 64.785156 181.765625 C 66.925781 183.910156 69.785156 185.085938 72.820312 185.085938 C 75.855469 185.085938 78.710938 183.910156 80.851562 181.765625 L 98.992188 163.625 C 100.902344 161.71875 102.433594 159.304688 103.667969 156.253906 C 104.207031 154.917969 103.898438 153.394531 102.878906 152.375 L 101.121094 150.617188 C 102.214844 149.550781 103.210938 148.519531 103.800781 147.894531 L 136.234375 181.59375 C 138.675781 184.121094 141.957031 185.535156 145.476562 185.558594 C 145.511719 185.558594 145.546875 185.558594 145.589844 185.558594 C 149.0625 185.558594 152.324219 184.210938 154.785156 181.746094 C 157.242188 179.292969 158.59375 176.027344 158.59375 172.550781 C 158.589844 169.082031 157.238281 165.816406 154.867188 163.453125 C 154.789062 163.367188 154.753906 163.332031 120.984375 130.707031 L 134.03125 117.65625 L 139.355469 122.980469 C 140.554688 124.183594 142.371094 124.648438 143.972656 124.222656 L 147.1875 127.433594 C 148.082031 128.335938 149.285156 128.835938 150.566406 128.835938 C 151.839844 128.835938 153.042969 128.335938 153.9375 127.4375 L 166.375 115.007812 C 168.234375 113.144531 168.234375 110.117188 166.375 108.25 L 163.160156 105.035156 " fill-opacity="1" fill-rule="nonzero"/></svg>