<svg xmlns="http://www.w3.org/2000/svg" xmlns:xlink="http://www.w3.org/1999/xlink" width="300" zoomAndPan="magnify" viewBox="0 0 224.87999 225" height="300" preserveAspectRatio="xMidYMid meet" version="1.0"><defs><clipPath id="de2cdf9605"><path d="M 9.839844 0.0585938 L 215 0.0585938 L 215 224.9375 L 9.839844 224.9375 Z M 9.839844 0.0585938 " clip-rule="nonzero"/></clipPath></defs><g clip-path="url(#de2cdf9605)"><path fill="#545454" d="M 127.097656 104.695312 C 127.816406 102.90625 127.601562 100.882812 126.519531 99.285156 C 125.441406 97.6875 123.648438 96.738281 121.722656 96.738281 L 117.734375 96.738281 L 117.734375 22.523438 L 120.550781 16.300781 C 120.757812 15.839844 120.808594 15.324219 120.695312 14.835938 L 117.671875 1.835938 C 117.433594 0.796875 116.503906 0.0585938 115.4375 0.0585938 L 109.394531 0.0585938 C 108.328125 0.0585938 107.402344 0.796875 107.160156 1.835938 L 104.140625 14.835938 C 104.023438 15.324219 104.078125 15.839844 104.285156 16.300781 L 107.101562 22.523438 L 107.101562 96.738281 L 103.113281 96.738281 C 101.1875 96.738281 99.394531 97.6875 98.3125 99.285156 C 97.234375 100.882812 97.015625 102.90625 97.738281 104.695312 C 99.71875 109.628906 96.957031 120.722656 95.730469 124.578125 C 95.65625 124.804688 95.621094 125.039062 95.621094 125.277344 L 95.621094 212.976562 C 95.621094 219.574219 100.988281 224.941406 107.582031 224.941406 L 117.25 224.941406 C 123.847656 224.941406 129.210938 219.574219 129.210938 212.976562 L 129.210938 125.277344 C 129.210938 125.039062 129.175781 124.804688 129.105469 124.578125 C 127.871094 120.726562 125.113281 109.640625 127.097656 104.695312 Z M 111.21875 4.648438 L 113.617188 4.648438 L 116.046875 15.117188 L 113.347656 21.082031 C 113.214844 21.378906 113.144531 21.703125 113.144531 22.027344 L 113.144531 96.738281 L 111.691406 96.738281 L 111.691406 22.027344 C 111.691406 21.703125 111.621094 21.378906 111.484375 21.082031 L 108.785156 15.117188 Z M 124.625 212.976562 C 124.625 217.042969 121.316406 220.351562 117.25 220.351562 L 107.582031 220.351562 C 103.515625 220.351562 100.210938 217.042969 100.210938 212.976562 L 100.210938 125.628906 C 101.039062 122.945312 104.792969 109.949219 101.996094 102.988281 C 101.777344 102.449219 102.007812 102.015625 102.117188 101.855469 C 102.25 101.65625 102.558594 101.324219 103.113281 101.324219 L 121.722656 101.324219 C 122.277344 101.324219 122.582031 101.65625 122.71875 101.855469 C 122.824219 102.015625 123.054688 102.449219 122.839844 102.988281 C 120.042969 109.949219 123.792969 122.945312 124.625 125.628906 Z M 63.882812 156.28125 L 93.324219 126.835938 L 93.324219 133.328125 L 66.089844 160.566406 C 65.441406 161.210938 64.472656 161.414062 63.621094 161.078125 C 52.21875 156.570312 39.257812 159.253906 30.59375 167.917969 C 22.996094 175.515625 19.988281 186.492188 22.4375 196.773438 L 33.554688 183.609375 C 33.855469 183.25 34.261719 182.996094 34.714844 182.875 L 49.4375 178.929688 C 50.226562 178.71875 51.074219 178.945312 51.652344 179.523438 L 62.429688 190.300781 C 63.007812 190.878906 63.234375 191.726562 63.023438 192.515625 L 59.078125 207.238281 C 58.957031 207.691406 58.699219 208.097656 58.34375 208.398438 L 45.175781 219.511719 C 55.460938 221.964844 66.433594 218.957031 74.035156 211.359375 C 82.699219 202.695312 85.382812 189.730469 80.875 178.332031 C 80.539062 177.480469 80.738281 176.511719 81.386719 175.863281 L 93.328125 163.925781 L 93.328125 170.414062 L 85.671875 178.070312 C 90.089844 190.816406 86.875 205.007812 77.277344 214.605469 C 70.542969 221.339844 61.5 224.9375 52.289062 224.9375 C 48.050781 224.9375 43.777344 224.175781 39.675781 222.605469 C 38.917969 222.316406 38.367188 221.648438 38.234375 220.847656 C 38.097656 220.046875 38.394531 219.234375 39.015625 218.710938 L 54.832031 205.355469 L 58.246094 192.609375 L 49.34375 183.707031 L 36.597656 187.121094 L 23.246094 202.9375 C 22.722656 203.558594 21.90625 203.855469 21.109375 203.71875 C 20.308594 203.585938 19.636719 203.035156 19.347656 202.277344 C 14.371094 189.273438 17.511719 174.511719 27.347656 164.675781 C 36.945312 155.078125 51.136719 151.863281 63.882812 156.28125 Z M 214.898438 203.949219 C 214.945312 206.242188 214.078125 208.394531 212.457031 210.015625 L 199.976562 222.496094 C 198.398438 224.074219 196.3125 224.941406 194.082031 224.941406 C 194.027344 224.941406 193.96875 224.941406 193.910156 224.9375 C 191.617188 224.890625 189.5 223.9375 187.945312 222.253906 L 131.507812 162.460938 L 131.507812 155.773438 L 191.300781 219.121094 C 192.019531 219.898438 192.972656 220.328125 194.003906 220.351562 C 195.050781 220.367188 196.003906 219.980469 196.734375 219.25 L 209.210938 206.769531 C 209.941406 206.042969 210.332031 205.070312 210.3125 204.039062 C 210.289062 203.007812 209.863281 202.054688 209.105469 201.355469 L 133.625 130.113281 L 131.507812 132.234375 L 131.507812 125.742188 L 158.746094 98.503906 C 159.390625 97.859375 160.363281 97.65625 161.210938 97.992188 C 172.613281 102.5 185.578125 99.816406 194.242188 91.152344 C 201.839844 83.554688 204.84375 72.582031 202.394531 62.296875 L 191.28125 75.460938 C 190.976562 75.820312 190.574219 76.074219 190.121094 76.199219 L 175.398438 80.140625 C 174.605469 80.351562 173.761719 80.128906 173.179688 79.546875 L 162.402344 68.769531 C 161.824219 68.191406 161.597656 67.347656 161.808594 66.554688 L 165.753906 51.832031 C 165.875 51.378906 166.132812 50.976562 166.492188 50.671875 L 179.65625 39.558594 C 169.371094 37.109375 158.398438 40.113281 150.800781 47.710938 C 142.136719 56.375 139.449219 69.339844 143.957031 80.742188 C 144.292969 81.589844 144.09375 82.558594 143.445312 83.207031 L 128.511719 98.144531 C 128.480469 98.09375 128.449219 98.046875 128.417969 98 C 127.558594 96.726562 126.375 95.75 125.019531 95.144531 L 139.160156 81 C 134.742188 68.253906 137.957031 54.0625 147.554688 44.464844 C 157.390625 34.628906 172.152344 31.488281 185.15625 36.464844 C 185.917969 36.753906 186.464844 37.425781 186.601562 38.222656 C 186.734375 39.023438 186.4375 39.835938 185.816406 40.359375 L 170 53.714844 L 166.585938 66.460938 L 175.488281 75.363281 L 188.238281 71.949219 L 201.589844 56.132812 C 202.113281 55.511719 202.925781 55.214844 203.726562 55.351562 C 204.527344 55.488281 205.195312 56.035156 205.484375 56.792969 C 210.464844 69.796875 207.324219 84.558594 197.484375 94.394531 C 187.886719 103.996094 173.695312 107.207031 160.949219 102.789062 L 136.871094 126.867188 L 212.234375 198 C 213.898438 199.539062 214.855469 201.65625 214.898438 203.949219 Z M 56.214844 76.003906 L 95.210938 117.320312 C 94.839844 119.195312 94.386719 121.03125 93.921875 122.636719 L 55.179688 81.589844 C 54.824219 82.433594 54.5 83.296875 54.207031 84.179688 C 54.046875 84.65625 53.738281 85.0625 53.332031 85.34375 C 53.203125 85.507812 53.070312 85.660156 52.925781 85.804688 L 36.203125 102.527344 C 35.144531 103.582031 33.742188 104.164062 32.246094 104.164062 C 30.753906 104.164062 29.347656 103.582031 28.292969 102.527344 L 11.570312 85.804688 C 10.515625 84.75 9.933594 83.34375 9.933594 81.851562 C 9.933594 80.355469 10.515625 78.953125 11.570312 77.894531 L 28.292969 61.171875 C 28.4375 61.03125 28.589844 60.894531 28.753906 60.765625 C 29.027344 60.371094 29.425781 60.054688 29.917969 59.890625 C 39.570312 56.671875 45.957031 50.53125 49.429688 41.121094 C 49.550781 39.960938 50.152344 39.269531 50.53125 38.945312 C 64.167969 27.148438 81.90625 24.3125 92.703125 32.207031 C 93.398438 32.71875 93.972656 33.121094 94.464844 33.472656 C 97.105469 35.34375 97.792969 35.894531 101.507812 40.355469 C 103.308594 42.523438 103.46875 45.550781 101.894531 47.71875 C 100.507812 49.636719 98.152344 50.300781 95.894531 49.40625 C 95.074219 49.082031 94.34375 48.828125 93.636719 48.582031 C 92.003906 48.015625 90.464844 47.480469 88.464844 46.296875 C 87.328125 45.625 86.660156 45.71875 86.253906 45.84375 C 83.890625 46.589844 81.648438 51.503906 79.847656 55.453125 C 78.300781 58.839844 76.839844 62.042969 74.964844 63.761719 C 74.515625 64.171875 73.957031 64.4375 73.308594 64.542969 C 72.714844 64.757812 72.128906 64.984375 71.558594 65.222656 L 102.539062 94.464844 C 100.804688 94.585938 99.175781 95.261719 97.875 96.371094 L 65.964844 66.25 C 65.425781 65.746094 65.167969 65.011719 65.265625 64.277344 C 65.363281 63.546875 65.808594 62.90625 66.457031 62.558594 C 68.167969 61.644531 70.035156 60.832031 72.015625 60.136719 C 72.058594 60.121094 72.097656 60.105469 72.140625 60.09375 C 73.257812 58.839844 74.484375 56.152344 75.671875 53.546875 C 78.078125 48.273438 80.5625 42.824219 84.878906 41.464844 C 86.796875 40.863281 88.789062 41.160156 90.796875 42.34375 C 92.40625 43.296875 93.613281 43.714844 95.140625 44.246094 C 95.859375 44.496094 96.675781 44.777344 97.585938 45.140625 C 97.957031 45.285156 98.0625 45.191406 98.179688 45.027344 C 98.414062 44.707031 98.550781 43.980469 97.980469 43.292969 C 94.519531 39.136719 94.105469 38.84375 91.8125 37.21875 C 91.304688 36.855469 90.710938 36.4375 89.996094 35.914062 C 81.007812 29.34375 65.921875 31.941406 53.949219 42.0625 C 53.925781 42.164062 53.898438 42.265625 53.863281 42.363281 C 50.066406 52.925781 42.789062 60.183594 32.222656 63.953125 C 32.089844 64.066406 31.941406 64.171875 31.78125 64.257812 C 31.636719 64.335938 31.570312 64.386719 31.539062 64.417969 L 14.816406 81.140625 C 14.558594 81.398438 14.519531 81.695312 14.519531 81.851562 C 14.519531 82.007812 14.558594 82.304688 14.816406 82.5625 L 31.539062 99.285156 C 31.792969 99.539062 32.089844 99.578125 32.246094 99.578125 C 32.402344 99.578125 32.699219 99.539062 32.957031 99.285156 L 49.679688 82.5625 C 49.710938 82.53125 49.765625 82.460938 49.839844 82.316406 C 49.925781 82.15625 50.03125 82.007812 50.148438 81.875 C 50.820312 79.996094 51.613281 78.191406 52.519531 76.496094 C 52.867188 75.847656 53.507812 75.402344 54.238281 75.304688 C 54.339844 75.289062 54.445312 75.285156 54.542969 75.285156 C 55.171875 75.28125 55.777344 75.539062 56.214844 76.003906 Z M 56.214844 76.003906 " fill-opacity="1" fill-rule="nonzero"/></g></svg>