<svg xmlns="http://www.w3.org/2000/svg" xmlns:xlink="http://www.w3.org/1999/xlink" width="300" zoomAndPan="magnify" viewBox="0 0 224.87999 225" height="300" preserveAspectRatio="xMidYMid meet" version="1.0"><defs><clipPath id="729a99b313"><path d="M 211 93 L 224.761719 93 L 224.761719 165 L 211 165 Z M 211 93 " clip-rule="nonzero"/></clipPath><clipPath id="e84c3f3c45"><path d="M 6 160 L 23 160 L 23 176.589844 L 6 176.589844 Z M 6 160 " clip-rule="nonzero"/></clipPath><clipPath id="6f1795504a"><path d="M 201 160 L 218 160 L 218 176.589844 L 201 176.589844 Z M 201 160 " clip-rule="nonzero"/></clipPath><clipPath id="a03b96be0d"><path d="M 33 48.410156 L 41 48.410156 L 41 53 L 33 53 Z M 33 48.410156 " clip-rule="nonzero"/></clipPath><clipPath id="4da76a817f"><path d="M 12 48.410156 L 213 48.410156 L 213 98 L 12 98 Z M 12 48.410156 " clip-rule="nonzero"/></clipPath></defs><path fill="#ffffff" d="M 20.0625 162.898438 L 8.613281 162.898438 L 10.636719 174.347656 L 18.042969 174.347656 Z M 20.0625 162.898438 " fill-opacity="1" fill-rule="nonzero"/><path fill="#ffffff" d="M 215.589844 162.898438 L 204.140625 162.898438 L 206.164062 174.347656 L 213.570312 174.347656 Z M 215.589844 162.898438 " fill-opacity="1" fill-rule="nonzero"/><path fill="#ffffff" d="M 22.757812 95.328125 L 22.757812 66.367188 C 22.757812 62.777344 25.675781 59.632812 29.492188 59.632812 L 194.9375 59.632812 C 198.53125 59.632812 201.671875 62.550781 201.671875 66.367188 L 201.671875 95.328125 L 209.980469 95.328125 L 209.980469 66.59375 C 209.980469 57.835938 202.796875 50.652344 194.039062 50.652344 L 30.164062 50.652344 C 21.410156 50.652344 14.226562 57.835938 14.226562 66.59375 L 14.226562 95.328125 Z M 22.757812 95.328125 " fill-opacity="1" fill-rule="nonzero"/><path fill="#ffffff" d="M 2.554688 95.328125 L 11.085938 95.328125 L 11.085938 162.671875 L 2.554688 162.671875 Z M 2.554688 95.328125 " fill-opacity="1" fill-rule="nonzero"/><path fill="#ffffff" d="M 19.613281 95.328125 L 27.472656 95.328125 L 27.472656 162.671875 L 19.613281 162.671875 Z M 19.613281 95.328125 " fill-opacity="1" fill-rule="nonzero"/><path fill="#ffffff" d="M 196.734375 95.328125 L 205.265625 95.328125 L 205.265625 162.671875 L 196.734375 162.671875 Z M 196.734375 95.328125 " fill-opacity="1" fill-rule="nonzero"/><path fill="#ffffff" d="M 213.796875 95.328125 L 222.324219 95.328125 L 222.324219 162.671875 L 213.796875 162.671875 Z M 213.796875 95.328125 " fill-opacity="1" fill-rule="nonzero"/><path fill="#ffffff" d="M 27.472656 155.265625 L 196.285156 155.265625 L 196.285156 162.671875 L 27.472656 162.671875 Z M 27.472656 155.265625 " fill-opacity="1" fill-rule="nonzero"/><path fill="#ffffff" d="M 27.472656 121.144531 L 196.285156 121.144531 L 196.285156 129 L 27.472656 129 Z M 27.472656 121.144531 " fill-opacity="1" fill-rule="nonzero"/><path fill="#ffffff" d="M 45.207031 129.222656 L 54.410156 129.222656 L 54.410156 155.265625 L 45.207031 155.265625 Z M 45.207031 129.222656 " fill-opacity="1" fill-rule="nonzero"/><path fill="#ffffff" d="M 86.511719 129.222656 L 95.714844 129.222656 L 95.714844 155.265625 L 86.511719 155.265625 Z M 86.511719 129.222656 " fill-opacity="1" fill-rule="nonzero"/><path fill="#ffffff" d="M 127.816406 129.222656 L 137.019531 129.222656 L 137.019531 155.265625 L 127.816406 155.265625 Z M 127.816406 129.222656 " fill-opacity="1" fill-rule="nonzero"/><path fill="#ffffff" d="M 169.347656 129.222656 L 178.550781 129.222656 L 178.550781 155.265625 L 169.347656 155.265625 Z M 169.347656 129.222656 " fill-opacity="1" fill-rule="nonzero"/><path fill="#ffffff" d="M 45.207031 59.632812 L 54.410156 59.632812 L 54.410156 121.144531 L 45.207031 121.144531 Z M 45.207031 59.632812 " fill-opacity="1" fill-rule="nonzero"/><path fill="#ffffff" d="M 86.511719 59.632812 L 95.714844 59.632812 L 95.714844 121.144531 L 86.511719 121.144531 Z M 86.511719 59.632812 " fill-opacity="1" fill-rule="nonzero"/><path fill="#ffffff" d="M 127.816406 59.632812 L 137.019531 59.632812 L 137.019531 121.144531 L 127.816406 121.144531 Z M 127.816406 59.632812 " fill-opacity="1" fill-rule="nonzero"/><path fill="#ffffff" d="M 169.347656 59.632812 L 178.550781 59.632812 L 178.550781 121.144531 L 169.347656 121.144531 Z M 169.347656 59.632812 " fill-opacity="1" fill-rule="nonzero"/><path fill="#545454" d="M 10.859375 164.917969 L 2.554688 164.917969 C 1.207031 164.917969 0.308594 164.019531 0.308594 162.671875 L 0.308594 107 C 0.308594 105.652344 1.207031 104.753906 2.554688 104.753906 C 3.902344 104.753906 4.800781 105.652344 4.800781 107 L 4.800781 160.429688 L 8.613281 160.429688 L 8.613281 97.570312 L 4.800781 97.570312 L 4.800781 101.386719 C 4.800781 102.734375 3.902344 103.632812 2.554688 103.632812 C 1.207031 103.632812 0.308594 102.734375 0.308594 101.386719 L 0.308594 95.328125 C 0.308594 93.980469 1.207031 93.082031 2.554688 93.082031 L 10.859375 93.082031 C 12.207031 93.082031 13.105469 93.980469 13.105469 95.328125 L 13.105469 162.671875 C 13.105469 164.019531 12.207031 164.917969 10.859375 164.917969 Z M 10.859375 164.917969 " fill-opacity="1" fill-rule="nonzero"/><path fill="#545454" d="M 27.472656 164.917969 L 19.613281 164.917969 C 18.269531 164.917969 17.371094 164.019531 17.371094 162.671875 L 17.371094 95.328125 C 17.371094 93.980469 18.269531 93.082031 19.613281 93.082031 L 27.472656 93.082031 C 28.820312 93.082031 29.71875 93.980469 29.71875 95.328125 L 29.71875 162.671875 C 29.71875 164.019531 28.59375 164.917969 27.472656 164.917969 Z M 21.859375 160.429688 L 25.226562 160.429688 L 25.226562 97.570312 L 21.859375 97.570312 Z M 21.859375 160.429688 " fill-opacity="1" fill-rule="nonzero"/><path fill="#545454" d="M 205.265625 164.917969 L 196.734375 164.917969 C 195.386719 164.917969 194.488281 164.019531 194.488281 162.671875 L 194.488281 95.328125 C 194.488281 93.980469 195.386719 93.082031 196.734375 93.082031 L 205.265625 93.082031 C 206.613281 93.082031 207.511719 93.980469 207.511719 95.328125 L 207.511719 162.671875 C 207.511719 164.019531 206.386719 164.917969 205.265625 164.917969 Z M 198.980469 160.429688 L 203.019531 160.429688 L 203.019531 97.570312 L 198.980469 97.570312 Z M 198.980469 160.429688 " fill-opacity="1" fill-rule="nonzero"/><g clip-path="url(#729a99b313)"><path fill="#545454" d="M 222.324219 164.917969 L 213.796875 164.917969 C 212.449219 164.917969 211.550781 164.019531 211.550781 162.671875 L 211.550781 155.265625 C 211.550781 153.917969 212.449219 153.019531 213.796875 153.019531 C 215.140625 153.019531 216.039062 153.917969 216.039062 155.265625 L 216.039062 160.429688 L 220.082031 160.429688 L 220.082031 97.570312 L 216.039062 97.570312 L 216.039062 148.980469 C 216.039062 150.324219 215.140625 151.222656 213.796875 151.222656 C 212.449219 151.222656 211.550781 150.324219 211.550781 148.980469 L 211.550781 95.328125 C 211.550781 93.980469 212.449219 93.082031 213.796875 93.082031 L 222.324219 93.082031 C 223.671875 93.082031 224.570312 93.980469 224.570312 95.328125 L 224.570312 162.671875 C 224.570312 164.019531 223.449219 164.917969 222.324219 164.917969 Z M 222.324219 164.917969 " fill-opacity="1" fill-rule="nonzero"/></g><path fill="#545454" d="M 196.285156 164.917969 L 171.59375 164.917969 C 170.246094 164.917969 169.347656 164.019531 169.347656 162.671875 C 169.347656 161.324219 170.246094 160.429688 171.59375 160.429688 L 194.039062 160.429688 L 194.039062 157.507812 L 29.71875 157.507812 L 29.71875 160.429688 L 165.304688 160.429688 C 166.652344 160.429688 167.550781 161.324219 167.550781 162.671875 C 167.550781 164.019531 166.652344 164.917969 165.304688 164.917969 L 27.472656 164.917969 C 26.125 164.917969 25.226562 164.019531 25.226562 162.671875 L 25.226562 155.265625 C 25.226562 153.917969 26.125 153.019531 27.472656 153.019531 L 196.285156 153.019531 C 197.632812 153.019531 198.53125 153.917969 198.53125 155.265625 L 198.53125 162.671875 C 198.53125 164.019531 197.40625 164.917969 196.285156 164.917969 Z M 196.285156 164.917969 " fill-opacity="1" fill-rule="nonzero"/><path fill="#545454" d="M 196.285156 131.246094 L 27.472656 131.246094 C 26.125 131.246094 25.226562 130.347656 25.226562 129 L 25.226562 121.144531 C 25.226562 119.796875 26.125 118.898438 27.472656 118.898438 L 196.285156 118.898438 C 197.632812 118.898438 198.53125 119.796875 198.53125 121.144531 L 198.53125 129 C 198.53125 130.347656 197.40625 131.246094 196.285156 131.246094 Z M 29.71875 126.753906 L 194.039062 126.753906 L 194.039062 123.386719 L 29.71875 123.386719 Z M 29.71875 126.753906 " fill-opacity="1" fill-rule="nonzero"/><path fill="#545454" d="M 54.410156 123.386719 L 45.207031 123.386719 C 43.859375 123.386719 42.960938 122.488281 42.960938 121.144531 L 42.960938 59.632812 C 42.960938 58.285156 43.859375 57.386719 45.207031 57.386719 L 54.410156 57.386719 C 55.757812 57.386719 56.65625 58.285156 56.65625 59.632812 L 56.65625 90.386719 C 56.65625 91.734375 55.757812 92.632812 54.410156 92.632812 C 53.0625 92.632812 52.164062 91.734375 52.164062 90.386719 L 52.164062 61.878906 L 47.453125 61.878906 L 47.453125 118.898438 L 52.164062 118.898438 L 52.164062 96.449219 C 52.164062 95.101562 53.0625 94.203125 54.410156 94.203125 C 55.757812 94.203125 56.65625 95.101562 56.65625 96.449219 L 56.65625 121.144531 C 56.65625 122.488281 55.757812 123.386719 54.410156 123.386719 Z M 54.410156 123.386719 " fill-opacity="1" fill-rule="nonzero"/><path fill="#545454" d="M 95.714844 123.386719 L 86.511719 123.386719 C 85.164062 123.386719 84.265625 122.488281 84.265625 121.144531 L 84.265625 59.632812 C 84.265625 58.285156 85.164062 57.386719 86.511719 57.386719 L 95.714844 57.386719 C 97.0625 57.386719 97.960938 58.285156 97.960938 59.632812 L 97.960938 121.144531 C 97.960938 122.488281 97.0625 123.386719 95.714844 123.386719 Z M 88.757812 118.898438 L 93.472656 118.898438 L 93.472656 61.878906 L 88.757812 61.878906 Z M 88.757812 118.898438 " fill-opacity="1" fill-rule="nonzero"/><path fill="#545454" d="M 137.019531 123.386719 L 127.816406 123.386719 C 126.46875 123.386719 125.574219 122.488281 125.574219 121.144531 L 125.574219 59.632812 C 125.574219 58.285156 126.46875 57.386719 127.816406 57.386719 L 137.019531 57.386719 C 138.367188 57.386719 139.265625 58.285156 139.265625 59.632812 L 139.265625 121.144531 C 139.265625 122.488281 138.367188 123.386719 137.019531 123.386719 Z M 130.0625 118.898438 L 134.777344 118.898438 L 134.777344 61.878906 L 130.0625 61.878906 Z M 130.0625 118.898438 " fill-opacity="1" fill-rule="nonzero"/><path fill="#545454" d="M 178.550781 123.386719 L 169.347656 123.386719 C 168 123.386719 167.101562 122.488281 167.101562 121.144531 L 167.101562 59.632812 C 167.101562 58.285156 168 57.386719 169.347656 57.386719 L 178.550781 57.386719 C 179.898438 57.386719 180.796875 58.285156 180.796875 59.632812 L 180.796875 67.492188 C 180.796875 68.835938 179.898438 69.734375 178.550781 69.734375 C 177.203125 69.734375 176.304688 68.835938 176.304688 67.492188 L 176.304688 61.878906 L 171.59375 61.878906 L 171.59375 118.898438 L 176.304688 118.898438 L 176.304688 73.101562 C 176.304688 71.753906 177.203125 70.859375 178.550781 70.859375 C 179.898438 70.859375 180.796875 71.753906 180.796875 73.101562 L 180.796875 121.367188 C 180.796875 122.488281 179.671875 123.386719 178.550781 123.386719 Z M 178.550781 123.386719 " fill-opacity="1" fill-rule="nonzero"/><path fill="#545454" d="M 54.410156 157.507812 L 45.207031 157.507812 C 43.859375 157.507812 42.960938 156.613281 42.960938 155.265625 L 42.960938 129.222656 C 42.960938 127.878906 43.859375 126.980469 45.207031 126.980469 L 54.410156 126.980469 C 55.757812 126.980469 56.65625 127.878906 56.65625 129.222656 L 56.65625 155.265625 C 56.65625 156.386719 55.757812 157.507812 54.410156 157.507812 Z M 47.453125 153.019531 L 52.164062 153.019531 L 52.164062 131.46875 L 47.453125 131.46875 Z M 47.453125 153.019531 " fill-opacity="1" fill-rule="nonzero"/><path fill="#545454" d="M 95.714844 157.507812 L 86.511719 157.507812 C 85.164062 157.507812 84.265625 156.613281 84.265625 155.265625 L 84.265625 129.222656 C 84.265625 127.878906 85.164062 126.980469 86.511719 126.980469 L 95.714844 126.980469 C 97.0625 126.980469 97.960938 127.878906 97.960938 129.222656 L 97.960938 155.265625 C 97.960938 156.386719 97.0625 157.507812 95.714844 157.507812 Z M 88.757812 153.019531 L 93.472656 153.019531 L 93.472656 131.46875 L 88.757812 131.46875 Z M 88.757812 153.019531 " fill-opacity="1" fill-rule="nonzero"/><path fill="#545454" d="M 137.019531 157.507812 L 127.816406 157.507812 C 126.46875 157.507812 125.574219 156.613281 125.574219 155.265625 L 125.574219 129.222656 C 125.574219 127.878906 126.46875 126.980469 127.816406 126.980469 L 137.019531 126.980469 C 138.367188 126.980469 139.265625 127.878906 139.265625 129.222656 L 139.265625 155.265625 C 139.265625 156.386719 138.367188 157.507812 137.019531 157.507812 Z M 130.0625 153.019531 L 134.777344 153.019531 L 134.777344 131.46875 L 130.0625 131.46875 Z M 130.0625 153.019531 " fill-opacity="1" fill-rule="nonzero"/><path fill="#545454" d="M 178.550781 157.507812 L 169.347656 157.507812 C 168 157.507812 167.101562 156.613281 167.101562 155.265625 L 167.101562 129.222656 C 167.101562 127.878906 168 126.980469 169.347656 126.980469 L 178.550781 126.980469 C 179.898438 126.980469 180.796875 127.878906 180.796875 129.222656 L 180.796875 155.265625 C 180.796875 156.386719 179.671875 157.507812 178.550781 157.507812 Z M 171.59375 153.019531 L 176.304688 153.019531 L 176.304688 131.46875 L 171.59375 131.46875 Z M 171.59375 153.019531 " fill-opacity="1" fill-rule="nonzero"/><g clip-path="url(#e84c3f3c45)"><path fill="#545454" d="M 18.042969 176.589844 L 10.636719 176.589844 C 9.511719 176.589844 8.613281 175.917969 8.390625 174.792969 L 6.371094 163.347656 C 6.144531 162.671875 6.371094 162 6.820312 161.550781 C 7.492188 160.875 7.941406 160.652344 8.613281 160.652344 L 20.0625 160.652344 C 20.738281 160.652344 21.410156 160.875 21.859375 161.550781 C 22.308594 162 22.535156 162.671875 22.308594 163.347656 L 20.289062 174.796875 C 20.0625 175.917969 19.164062 176.589844 18.042969 176.589844 Z M 12.65625 172.101562 L 16.246094 172.101562 L 17.59375 165.140625 L 11.308594 165.140625 Z M 12.65625 172.101562 " fill-opacity="1" fill-rule="nonzero"/></g><g clip-path="url(#6f1795504a)"><path fill="#545454" d="M 213.570312 176.589844 L 206.164062 176.589844 C 205.039062 176.589844 204.140625 175.917969 203.917969 174.792969 L 201.898438 163.347656 C 201.671875 162.671875 201.898438 162 202.347656 161.550781 C 202.796875 161.101562 203.46875 160.652344 204.140625 160.652344 L 215.589844 160.652344 C 216.265625 160.652344 216.9375 160.875 217.386719 161.550781 C 217.835938 162 218.0625 162.671875 217.835938 163.347656 L 215.816406 174.792969 C 215.589844 175.917969 214.46875 176.589844 213.570312 176.589844 Z M 208.183594 172.101562 L 211.773438 172.101562 L 213.121094 165.140625 L 207.0625 165.140625 Z M 208.183594 172.101562 " fill-opacity="1" fill-rule="nonzero"/></g><g clip-path="url(#a03b96be0d)"><path fill="#545454" d="M 38.472656 52.898438 L 36.003906 52.898438 C 34.65625 52.898438 33.757812 52 33.757812 50.652344 C 33.757812 49.308594 34.65625 48.410156 36.003906 48.410156 L 38.472656 48.410156 C 39.820312 48.410156 40.714844 49.308594 40.714844 50.652344 C 40.714844 52 39.820312 52.898438 38.472656 52.898438 Z M 38.472656 52.898438 " fill-opacity="1" fill-rule="nonzero"/></g><g clip-path="url(#4da76a817f)"><path fill="#545454" d="M 209.753906 97.570312 L 201.449219 97.570312 C 200.101562 97.570312 199.203125 96.671875 199.203125 95.328125 L 199.203125 66.367188 C 199.203125 63.898438 197.183594 61.878906 194.714844 61.878906 L 29.492188 61.878906 C 27.023438 61.878906 25.003906 63.898438 25.003906 66.367188 L 25.003906 95.328125 C 25.003906 96.671875 24.105469 97.570312 22.757812 97.570312 L 14.453125 97.570312 C 13.105469 97.570312 12.207031 96.671875 12.207031 95.328125 L 12.207031 66.59375 C 12.207031 56.714844 20.289062 48.410156 30.390625 48.410156 C 31.738281 48.410156 32.636719 49.308594 32.636719 50.652344 C 32.636719 52 31.738281 52.898438 30.390625 52.898438 C 22.980469 52.898438 16.695312 58.960938 16.695312 66.59375 L 16.695312 93.082031 L 20.511719 93.082031 L 20.511719 66.367188 C 20.511719 61.429688 24.554688 57.386719 29.492188 57.386719 L 194.9375 57.386719 C 199.878906 57.386719 203.917969 61.429688 203.917969 66.367188 L 203.917969 93.082031 L 207.734375 93.082031 L 207.734375 66.59375 C 207.734375 59.183594 201.671875 52.898438 194.039062 52.898438 L 45.207031 52.898438 C 43.859375 52.898438 42.960938 52 42.960938 50.652344 C 42.960938 49.308594 43.859375 48.410156 45.207031 48.410156 L 194.039062 48.410156 C 203.917969 48.410156 212.222656 56.492188 212.222656 66.59375 L 212.222656 95.328125 C 212 96.449219 211.101562 97.570312 209.753906 97.570312 Z M 209.753906 97.570312 " fill-opacity="1" fill-rule="nonzero"/></g></svg>