<svg xmlns="http://www.w3.org/2000/svg" xmlns:xlink="http://www.w3.org/1999/xlink" width="300" zoomAndPan="magnify" viewBox="0 0 224.87999 225" height="300" preserveAspectRatio="xMidYMid meet" version="1.0"><defs><clipPath id="8d1f91a291"><path d="M 0 0.0585938 L 224.761719 0.0585938 L 224.761719 224.9375 L 0 224.9375 Z M 0 0.0585938 " clip-rule="nonzero"/></clipPath></defs><g clip-path="url(#8d1f91a291)"><path fill="#545454" d="M 224.878906 42.226562 L 224.878906 21.105469 C 224.882812 20.773438 224.832031 20.445312 224.734375 20.125 C 224.71875 20.066406 224.683594 20.015625 224.664062 19.957031 C 224.574219 19.703125 224.457031 19.460938 224.3125 19.230469 C 224.246094 19.140625 224.171875 19.054688 224.097656 18.972656 C 223.90625 18.679688 223.65625 18.445312 223.351562 18.273438 C 223.1875 18.152344 223.011719 18.046875 222.828125 17.957031 C 222.789062 17.957031 222.757812 17.90625 222.71875 17.890625 C 222.625 17.859375 222.527344 17.835938 222.425781 17.820312 C 222.3125 17.769531 222.195312 17.726562 222.074219 17.691406 L 134.230469 0.125 C 133.65625 0.0078125 133.089844 0.0351562 132.53125 0.207031 C 131.96875 0.375 131.484375 0.667969 131.070312 1.082031 L 1.0625 131.089844 C 0.800781 131.359375 0.585938 131.664062 0.425781 132 C 0.386719 132.074219 0.367188 132.148438 0.332031 132.226562 C 0.160156 132.628906 0.0664062 133.050781 0.0507812 133.492188 C 0.0507812 133.519531 0.0507812 133.546875 0.0507812 133.574219 L 0.0507812 154.65625 C 0.0507812 155.0625 0.117188 155.457031 0.253906 155.835938 C 0.390625 156.21875 0.585938 156.566406 0.839844 156.878906 C 1.097656 157.195312 1.398438 157.457031 1.746094 157.664062 C 2.089844 157.875 2.464844 158.019531 2.859375 158.101562 L 19.84375 161.5 L 1.03125 180.289062 C 0.863281 180.488281 0.722656 180.699219 0.605469 180.929688 C 0.496094 181.070312 0.402344 181.214844 0.316406 181.371094 C 0.113281 181.816406 0.0078125 182.285156 0 182.773438 L 0 203.859375 C 0 204.261719 0.0664062 204.65625 0.203125 205.039062 C 0.339844 205.417969 0.535156 205.765625 0.792969 206.082031 C 1.046875 206.394531 1.347656 206.65625 1.695312 206.863281 C 2.042969 207.074219 2.414062 207.21875 2.8125 207.300781 L 90.65625 224.871094 C 90.886719 224.917969 91.121094 224.941406 91.359375 224.941406 C 91.789062 224.9375 92.203125 224.855469 92.605469 224.699219 C 92.730469 224.648438 92.832031 224.558594 92.957031 224.5 C 93.179688 224.40625 93.390625 224.289062 93.589844 224.148438 C 93.632812 224.113281 93.648438 224.058594 93.691406 224.023438 C 93.734375 223.988281 93.800781 223.964844 93.84375 223.917969 L 223.855469 93.910156 C 224.539062 93.21875 224.882812 92.390625 224.878906 91.417969 L 224.878906 70.335938 C 224.867188 70.175781 224.84375 70.019531 224.808594 69.863281 C 224.796875 69.746094 224.777344 69.628906 224.753906 69.511719 C 224.664062 69.117188 224.511719 68.75 224.292969 68.410156 C 223.992188 67.960938 223.605469 67.609375 223.128906 67.355469 C 222.996094 67.261719 222.859375 67.179688 222.714844 67.105469 C 222.566406 67.058594 222.417969 67.023438 222.265625 66.992188 C 222.191406 66.992188 222.136719 66.921875 222.058594 66.910156 L 205.074219 63.507812 L 223.855469 44.726562 C 224.542969 44.035156 224.886719 43.203125 224.878906 42.226562 Z M 90.203125 196.53125 L 81.65625 194.820312 C 83.859375 188.0625 86.855469 181.679688 90.65625 175.671875 C 90.886719 175.722656 91.121094 175.75 91.359375 175.746094 C 91.789062 175.742188 92.203125 175.664062 92.605469 175.503906 C 92.730469 175.457031 92.832031 175.367188 92.957031 175.308594 C 93.179688 175.214844 93.390625 175.097656 93.589844 174.957031 C 93.632812 174.921875 93.648438 174.867188 93.691406 174.832031 C 93.734375 174.796875 93.800781 174.769531 93.84375 174.726562 L 153.550781 115.011719 C 150.660156 122.757812 148.742188 130.734375 147.792969 138.945312 Z M 83.300781 174.203125 C 79.707031 180.285156 76.847656 186.695312 74.722656 193.433594 L 43.042969 187.109375 C 44.910156 180.417969 47.273438 173.910156 50.132812 167.582031 Z M 155.820312 11.617188 L 139.304688 28.992188 C 131.671875 37.027344 124.621094 45.542969 118.148438 54.542969 C 111.675781 63.539062 105.84375 72.933594 100.648438 82.722656 C 95.457031 92.515625 90.949219 102.613281 87.132812 113.019531 C 83.3125 123.421875 80.21875 134.039062 77.847656 144.863281 L 44.148438 138.125 C 55.507812 118.101562 68.160156 98.925781 82.101562 80.601562 C 96.042969 62.28125 111.152344 44.976562 127.421875 28.6875 L 146.378906 9.730469 Z M 90.203125 147.339844 L 84.738281 146.230469 C 87.046875 135.730469 90.054688 125.433594 93.765625 115.339844 C 97.476562 105.246094 101.851562 95.453125 106.894531 85.953125 C 111.9375 76.457031 117.597656 67.34375 123.882812 58.617188 C 130.164062 49.890625 137.007812 41.628906 144.414062 33.835938 L 163.976562 13.246094 L 178.851562 16.222656 L 160 33.976562 C 157.101562 36.695312 154.335938 39.542969 151.703125 42.519531 C 149.066406 45.496094 146.574219 48.585938 144.226562 51.792969 C 141.875 54.996094 139.679688 58.304688 137.632812 61.710938 C 135.589844 65.117188 133.703125 68.613281 131.980469 72.195312 C 130.257812 75.777344 128.703125 79.429688 127.3125 83.152344 C 125.925781 86.878906 124.714844 90.65625 123.675781 94.492188 C 122.636719 98.328125 121.773438 102.207031 121.09375 106.121094 C 120.410156 110.035156 119.910156 113.972656 119.589844 117.9375 Z M 164.816406 39.089844 L 187.304688 17.917969 L 214.226562 23.300781 L 127.617188 109.925781 C 128.636719 103.195312 130.210938 96.59375 132.332031 90.125 C 134.457031 83.65625 137.101562 77.410156 140.265625 71.382812 C 143.433594 65.355469 147.074219 59.632812 151.195312 54.214844 C 155.316406 48.792969 159.855469 43.753906 164.816406 39.089844 Z M 134.679688 7.386719 L 138.109375 8.089844 L 122.464844 23.71875 C 105.6875 40.5 90.132812 58.351562 75.800781 77.265625 C 61.46875 96.179688 48.492188 115.980469 36.875 136.671875 L 10.640625 131.425781 Z M 7.027344 137.871094 L 87.84375 154.03125 L 87.84375 167.945312 L 7.027344 151.785156 Z M 43.070312 166.160156 C 40.289062 172.511719 37.976562 179.03125 36.136719 185.714844 L 10.640625 180.617188 L 28.109375 163.164062 Z M 7.027344 187.0625 L 87.84375 203.226562 L 87.84375 217.140625 L 7.027344 200.976562 Z M 217.851562 89.960938 L 94.871094 212.945312 L 94.871094 201.796875 L 217.851562 78.816406 Z M 214.242188 72.492188 L 156.363281 130.359375 C 157.074219 126.59375 158.074219 122.90625 159.359375 119.296875 C 160.640625 115.6875 162.199219 112.195312 164.023438 108.828125 C 165.851562 105.457031 167.925781 102.25 170.25 99.203125 C 172.574219 96.15625 175.117188 93.308594 177.882812 90.65625 L 199.085938 69.453125 Z M 217.851562 40.769531 L 94.871094 163.75 L 94.871094 152.605469 L 217.851562 29.625 Z M 217.851562 40.769531 " fill-opacity="1" fill-rule="nonzero"/></g></svg>