<svg xmlns="http://www.w3.org/2000/svg" xmlns:xlink="http://www.w3.org/1999/xlink" width="300" zoomAndPan="magnify" viewBox="0 0 224.87999 225" height="300" preserveAspectRatio="xMidYMid meet" version="1.0"><defs><clipPath id="d612b35932"><path d="M 38 55.71875 L 155 55.71875 L 155 167 L 38 167 Z M 38 55.71875 " clip-rule="nonzero"/></clipPath><clipPath id="3c71b284d1"><path d="M 159 72 L 224.761719 72 L 224.761719 167 L 159 167 Z M 159 72 " clip-rule="nonzero"/></clipPath><clipPath id="92e432edd4"><path d="M 27 55.71875 L 35 55.71875 L 35 63 L 27 63 Z M 27 55.71875 " clip-rule="nonzero"/></clipPath><clipPath id="bf98571235"><path d="M 14 55.71875 L 22 55.71875 L 22 63 L 14 63 Z M 14 55.71875 " clip-rule="nonzero"/></clipPath></defs><g clip-path="url(#d612b35932)"><path fill="#343434" d="M 92.050781 55.742188 C 108.617188 55.742188 125.183594 55.742188 141.746094 55.742188 C 145.136719 55.742188 148.21875 56.503906 151.058594 58.488281 C 153.714844 60.339844 154.90625 62.640625 154.878906 65.910156 C 154.785156 78.789062 154.847656 91.671875 154.847656 104.554688 C 154.847656 118.542969 154.847656 132.53125 154.847656 146.519531 C 154.847656 147.375 154.832031 148.234375 154.847656 149.09375 C 154.867188 149.953125 154.492188 150.46875 153.582031 150.46875 C 152.722656 150.46875 151.863281 150.480469 151.003906 150.480469 L 114.933594 150.480469 C 110.65625 150.480469 111.46875 150.316406 110.3125 153.644531 C 108.183594 159.773438 104 163.675781 97.765625 165.449219 C 91.128906 167.335938 82.695312 164.289062 79.066406 158.457031 C 77.855469 156.484375 76.898438 154.390625 76.203125 152.179688 C 75.773438 150.828125 75.1875 150.4375 73.921875 150.457031 C 70.855469 150.507812 67.78125 150.382812 64.71875 150.492188 C 59.492188 150.683594 54.578125 146.101562 54.679688 140.601562 C 54.90625 128.214844 54.75 115.820312 54.753906 103.429688 C 54.753906 102.9375 54.753906 102.445312 54.753906 101.957031 C 54.753906 101.046875 55.175781 100.605469 56.09375 100.660156 C 56.214844 100.660156 56.347656 100.660156 56.460938 100.660156 C 61.609375 100.660156 60.671875 100.3125 60.6875 104.609375 C 60.738281 115.652344 60.707031 126.695312 60.707031 137.734375 C 60.707031 138.59375 60.648438 139.460938 60.726562 140.3125 C 60.980469 143.003906 61.992188 144.007812 64.675781 144.054688 C 67.742188 144.113281 70.8125 144.003906 73.878906 144.085938 C 75.398438 144.128906 75.792969 143.484375 76.25 142.070312 C 78.917969 133.78125 84.671875 128.984375 93.074219 128.632812 C 100.644531 128.3125 107.816406 133.125 110.570312 141.246094 C 111.503906 144.011719 111.449219 144.058594 114.246094 144.0625 C 124.796875 144.078125 135.351562 144.078125 145.902344 144.0625 C 146.515625 144.0625 147.1875 144.207031 147.722656 144 C 148.269531 143.769531 148.640625 143.378906 148.84375 142.820312 C 149.03125 142.003906 148.917969 141.117188 148.917969 140.257812 C 148.917969 116.332031 148.917969 92.410156 148.917969 68.484375 C 148.917969 63.789062 147.308594 62.183594 142.449219 62.171875 C 129.074219 62.144531 115.703125 62.144531 102.328125 62.171875 L 65.519531 62.171875 C 64.660156 62.171875 63.800781 62.136719 62.945312 62.195312 C 61.195312 62.308594 60.800781 62.632812 60.742188 64.402344 C 60.65625 66.976562 60.679688 69.554688 60.71875 72.128906 C 60.738281 73.347656 60.308594 73.90625 59.023438 73.890625 C 53.746094 73.847656 54.863281 74.261719 54.753906 69.96875 C 54.703125 68.007812 54.683594 66.039062 54.753906 64.078125 C 54.8125 62.628906 54.199219 62.140625 52.804688 62.15625 C 48.878906 62.207031 44.945312 62.195312 41.027344 62.171875 C 38.625 62.15625 38.625 62.121094 38.570312 59.75 C 38.570312 59.261719 38.554688 58.769531 38.570312 58.277344 C 38.628906 55.773438 38.632812 55.742188 41.292969 55.742188 C 58.226562 55.742188 75.160156 55.742188 92.089844 55.742188 Z M 81.863281 147.382812 C 81.863281 147.871094 81.828125 148.363281 81.863281 148.851562 C 82.429688 155.566406 89.824219 162.589844 98.625 158.433594 C 103.441406 156.152344 106.902344 149.621094 104.183594 142.402344 C 101.429688 135.101562 92.609375 132.824219 86.941406 137.023438 C 83.503906 139.601562 81.683594 143.003906 81.863281 147.382812 Z M 81.863281 147.382812 " fill-opacity="1" fill-rule="nonzero"/></g><g clip-path="url(#3c71b284d1)"><path fill="#343434" d="M 180.332031 72.558594 C 183.761719 72.558594 187.203125 72.675781 190.628906 72.527344 C 194.984375 72.335938 198.53125 74.050781 201.496094 76.96875 C 203.472656 78.972656 205.28125 81.117188 206.925781 83.402344 C 210.472656 88.21875 214.007812 93.074219 217.355469 98.042969 C 220.203125 102.265625 221.917969 106.929688 221.832031 112.144531 C 221.765625 116.433594 221.816406 120.726562 221.804688 125.019531 C 221.804688 126.035156 221.789062 127.019531 223.207031 127.113281 C 224.285156 127.179688 224.609375 127.910156 224.609375 128.886719 C 224.609375 133.054688 224.863281 137.253906 224.535156 141.390625 C 224.121094 146.746094 219.792969 150.398438 214.351562 150.472656 C 212.390625 150.5 210.425781 150.515625 208.464844 150.472656 C 207.15625 150.433594 206.601562 150.878906 206.269531 152.265625 C 205.0625 157.242188 202.230469 161.136719 197.742188 163.671875 C 187.730469 169.289062 175.71875 164.375 171.90625 153.328125 C 170.945312 150.550781 171.023438 150.515625 168.257812 150.496094 C 165.804688 150.472656 163.351562 150.4375 160.902344 150.496094 C 159.597656 150.527344 159.144531 149.949219 159.234375 148.734375 C 159.269531 148.246094 159.234375 147.757812 159.234375 147.265625 C 159.234375 125.683594 159.296875 104.101562 159.1875 82.523438 C 159.167969 78.328125 160.867188 75.472656 164.417969 73.625 C 165.601562 73.007812 166.863281 72.671875 168.199219 72.609375 C 172.234375 72.476562 176.285156 72.558594 180.332031 72.558594 Z M 199.742188 84.757812 C 197.121094 80.539062 195.058594 79.019531 191.667969 78.992188 C 184.1875 78.933594 176.707031 78.941406 169.226562 78.976562 C 166.457031 78.992188 165.476562 79.953125 165.210938 82.640625 C 165.140625 83.371094 165.1875 84.113281 165.1875 84.847656 C 165.1875 103.367188 165.1875 121.882812 165.1875 140.394531 C 165.1875 141.132812 165.210938 141.867188 165.1875 142.605469 C 165.167969 143.496094 165.589844 143.976562 166.472656 144.027344 C 167.085938 144.058594 167.699219 144.058594 168.3125 144.058594 C 170.992188 144.058594 170.988281 144.058594 171.863281 141.523438 C 172.875 138.613281 174.144531 135.855469 176.5 133.734375 C 181.492188 129.273438 187.105469 127.386719 193.746094 129.273438 C 200.511719 131.199219 204.40625 135.863281 206.28125 142.398438 C 206.617188 143.574219 207.0625 144.058594 208.226562 144.046875 C 210.429688 144.023438 212.640625 144.109375 214.847656 144.019531 C 216.898438 143.941406 218.050781 142.871094 218.171875 140.886719 C 218.292969 138.898438 218.226562 136.960938 218.171875 135 C 218.171875 134.554688 217.90625 133.753906 217.699219 133.730469 C 215.136719 133.480469 215.925781 131.535156 215.875 130.113281 C 215.792969 127.90625 215.855469 125.695312 215.851562 123.492188 C 215.851562 121.652344 215.851562 119.8125 215.835938 117.972656 C 215.820312 116.636719 215.148438 115.941406 213.769531 115.996094 C 212.910156 116.023438 212.054688 115.996094 211.195312 115.996094 C 202.859375 115.996094 194.519531 116.03125 186.179688 115.980469 C 181.363281 115.953125 177.183594 112.070312 177.015625 107.316406 C 176.855469 102.78125 176.867188 98.238281 177.015625 93.703125 C 177.164062 89.082031 181.234375 85.160156 185.820312 85.0625 C 189.496094 84.980469 193.171875 85.0625 196.855469 85.035156 C 197.773438 85.03125 198.691406 84.867188 199.742188 84.757812 Z M 200.25 110.03125 C 204.535156 110.03125 208.824219 110.058594 213.113281 110.019531 C 215.296875 109.996094 215.648438 109.421875 214.886719 107.308594 C 214.683594 106.730469 214.398438 106.1875 214.160156 105.625 C 212.132812 100.699219 208.429688 96.84375 205.625 92.414062 C 204.890625 91.25 203.691406 91.019531 202.417969 91.023438 C 197.179688 91.050781 191.933594 91.023438 186.699219 91.132812 C 184.476562 91.179688 183.441406 92.324219 183.402344 94.652344 C 183.324219 98.449219 183.324219 102.25 183.402344 106.046875 C 183.457031 109.042969 184.433594 109.992188 187.398438 110.023438 C 191.675781 110.066406 195.957031 110.03125 200.253906 110.03125 Z M 200.574219 147.183594 C 200.574219 146.816406 200.574219 146.453125 200.574219 146.085938 C 200.445312 141.441406 197.796875 138.144531 194.074219 136.117188 C 190.347656 134.089844 186.363281 134.511719 182.609375 136.878906 C 176.542969 140.695312 176.34375 149.773438 179.242188 154.164062 C 181.089844 156.953125 183.429688 158.984375 186.789062 159.425781 C 194.648438 160.484375 200.632812 155.132812 200.578125 147.183594 Z M 200.574219 147.183594 " fill-opacity="1" fill-rule="nonzero"/></g><path fill="#343434" d="M 70.617188 82.835938 L 42.332031 82.835938 C 41.476562 82.835938 40.59375 82.945312 39.773438 82.769531 C 39.320312 82.675781 38.886719 82.15625 38.597656 81.726562 C 38.425781 81.472656 38.539062 81.011719 38.539062 80.648438 C 38.558594 76.375 38.25 76.867188 42.230469 76.867188 C 61.207031 76.867188 80.183594 76.867188 99.164062 76.867188 C 99.898438 76.867188 100.636719 76.902344 101.367188 76.867188 C 102.554688 76.808594 103.171875 77.222656 103.15625 78.53125 C 103.097656 83.601562 103.625 82.808594 99.269531 82.828125 C 89.722656 82.871094 80.164062 82.835938 70.617188 82.835938 Z M 70.617188 82.835938 " fill-opacity="1" fill-rule="nonzero"/><path fill="#343434" d="M 49.960938 98.339844 C 42.722656 98.339844 35.480469 98.339844 28.242188 98.339844 C 25.402344 98.339844 25.402344 98.304688 25.382812 95.550781 C 25.382812 94.9375 25.40625 94.324219 25.398438 93.710938 C 25.382812 92.800781 25.828125 92.371094 26.726562 92.375 C 27.339844 92.375 27.953125 92.375 28.566406 92.375 C 42.800781 92.375 57.035156 92.375 71.269531 92.375 C 72.003906 92.375 72.761719 92.308594 73.46875 92.453125 C 73.835938 92.53125 74.390625 93.015625 74.390625 93.316406 C 74.390625 94.878906 74.246094 96.441406 74.140625 98.003906 C 72.949219 98.117188 71.753906 98.316406 70.5625 98.324219 C 63.707031 98.351562 56.835938 98.339844 49.960938 98.339844 Z M 49.960938 98.339844 " fill-opacity="1" fill-rule="nonzero"/><path fill="#343434" d="M 98.199219 147.414062 C 98.160156 150.351562 96.355469 152.089844 93.382812 152.078125 C 90.289062 152.078125 88.476562 150.148438 88.589844 147.007812 C 88.691406 144.21875 90.773438 142.347656 93.613281 142.476562 C 96.488281 142.597656 98.242188 144.484375 98.199219 147.414062 Z M 98.199219 147.414062 " fill-opacity="1" fill-rule="nonzero"/><path fill="#343434" d="M 188.859375 152.089844 C 185.921875 152.046875 184.230469 150.242188 184.253906 147.179688 C 184.273438 144.25 186.121094 142.566406 189.050781 142.421875 C 191.816406 142.285156 194.152344 144.757812 193.898438 147.554688 C 193.617188 150.414062 191.882812 152.128906 188.859375 152.089844 Z M 188.859375 152.089844 " fill-opacity="1" fill-rule="nonzero"/><g clip-path="url(#92e432edd4)"><path fill="#343434" d="M 34.519531 59.101562 C 34.519531 59.550781 34.433594 59.980469 34.261719 60.394531 C 34.089844 60.808594 33.847656 61.171875 33.53125 61.488281 C 33.214844 61.804688 32.851562 62.050781 32.4375 62.21875 C 32.023438 62.390625 31.59375 62.476562 31.144531 62.476562 C 30.695312 62.476562 30.265625 62.390625 29.851562 62.21875 C 29.441406 62.050781 29.074219 61.804688 28.757812 61.488281 C 28.441406 61.171875 28.199219 60.808594 28.027344 60.394531 C 27.855469 59.980469 27.769531 59.550781 27.769531 59.101562 C 27.769531 58.65625 27.855469 58.226562 28.027344 57.8125 C 28.199219 57.398438 28.441406 57.03125 28.757812 56.714844 C 29.074219 56.398438 29.441406 56.15625 29.851562 55.984375 C 30.265625 55.8125 30.695312 55.726562 31.144531 55.726562 C 31.59375 55.726562 32.023438 55.8125 32.4375 55.984375 C 32.851562 56.15625 33.214844 56.398438 33.53125 56.714844 C 33.847656 57.03125 34.089844 57.398438 34.261719 57.8125 C 34.433594 58.226562 34.519531 58.65625 34.519531 59.101562 Z M 34.519531 59.101562 " fill-opacity="1" fill-rule="nonzero"/></g><g clip-path="url(#bf98571235)"><path fill="#343434" d="M 21.4375 59.101562 C 21.4375 59.550781 21.351562 59.980469 21.183594 60.394531 C 21.011719 60.808594 20.765625 61.171875 20.449219 61.488281 C 20.132812 61.804688 19.769531 62.050781 19.355469 62.21875 C 18.941406 62.390625 18.511719 62.476562 18.0625 62.476562 C 17.617188 62.476562 17.1875 62.390625 16.773438 62.21875 C 16.359375 62.050781 15.996094 61.804688 15.679688 61.488281 C 15.363281 61.171875 15.117188 60.808594 14.945312 60.394531 C 14.773438 59.980469 14.6875 59.550781 14.6875 59.101562 C 14.6875 58.65625 14.773438 58.226562 14.945312 57.8125 C 15.117188 57.398438 15.363281 57.03125 15.679688 56.714844 C 15.996094 56.398438 16.359375 56.15625 16.773438 55.984375 C 17.1875 55.8125 17.617188 55.726562 18.0625 55.726562 C 18.511719 55.726562 18.941406 55.8125 19.355469 55.984375 C 19.769531 56.15625 20.132812 56.398438 20.449219 56.714844 C 20.765625 57.03125 21.011719 57.398438 21.183594 57.8125 C 21.351562 58.226562 21.4375 58.65625 21.4375 59.101562 Z M 21.4375 59.101562 " fill-opacity="1" fill-rule="nonzero"/></g><path fill="#343434" d="M 31.144531 79.859375 C 31.144531 80.308594 31.058594 80.738281 30.886719 81.152344 C 30.714844 81.566406 30.472656 81.929688 30.15625 82.246094 C 29.839844 82.5625 29.476562 82.808594 29.0625 82.980469 C 28.648438 83.148438 28.21875 83.234375 27.769531 83.234375 C 27.324219 83.234375 26.890625 83.148438 26.480469 82.980469 C 26.066406 82.808594 25.699219 82.5625 25.382812 82.246094 C 25.066406 81.929688 24.824219 81.566406 24.652344 81.152344 C 24.480469 80.738281 24.394531 80.308594 24.394531 79.859375 C 24.394531 79.414062 24.480469 78.984375 24.652344 78.570312 C 24.824219 78.15625 25.066406 77.789062 25.382812 77.472656 C 25.699219 77.15625 26.066406 76.914062 26.480469 76.742188 C 26.890625 76.570312 27.324219 76.484375 27.769531 76.484375 C 28.21875 76.484375 28.648438 76.570312 29.0625 76.742188 C 29.476562 76.914062 29.839844 77.15625 30.15625 77.472656 C 30.472656 77.789062 30.714844 78.15625 30.886719 78.570312 C 31.058594 78.984375 31.144531 79.414062 31.144531 79.859375 Z M 31.144531 79.859375 " fill-opacity="1" fill-rule="nonzero"/><path fill="#343434" d="M 18.0625 95.355469 C 18.0625 95.800781 17.980469 96.234375 17.808594 96.648438 C 17.636719 97.058594 17.390625 97.425781 17.074219 97.742188 C 16.757812 98.058594 16.394531 98.300781 15.980469 98.472656 C 15.566406 98.644531 15.136719 98.730469 14.6875 98.730469 C 14.242188 98.730469 13.8125 98.644531 13.398438 98.472656 C 12.984375 98.300781 12.621094 98.058594 12.304688 97.742188 C 11.988281 97.425781 11.742188 97.058594 11.570312 96.648438 C 11.398438 96.234375 11.316406 95.800781 11.316406 95.355469 C 11.316406 94.90625 11.398438 94.476562 11.570312 94.0625 C 11.742188 93.648438 11.988281 93.285156 12.304688 92.96875 C 12.621094 92.652344 12.984375 92.410156 13.398438 92.238281 C 13.8125 92.066406 14.242188 91.980469 14.6875 91.980469 C 15.136719 91.980469 15.566406 92.066406 15.980469 92.238281 C 16.394531 92.410156 16.757812 92.652344 17.074219 92.96875 C 17.390625 93.285156 17.636719 93.648438 17.808594 94.0625 C 17.980469 94.476562 18.0625 94.90625 18.0625 95.355469 Z M 18.0625 95.355469 " fill-opacity="1" fill-rule="nonzero"/><path fill="#343434" d="M 6.753906 95.355469 C 6.753906 95.800781 6.667969 96.234375 6.496094 96.648438 C 6.324219 97.058594 6.082031 97.425781 5.765625 97.742188 C 5.449219 98.058594 5.082031 98.300781 4.671875 98.472656 C 4.257812 98.644531 3.824219 98.730469 3.378906 98.730469 C 2.929688 98.730469 2.5 98.644531 2.085938 98.472656 C 1.671875 98.300781 1.308594 98.058594 0.992188 97.742188 C 0.675781 97.425781 0.433594 97.058594 0.261719 96.648438 C 0.0898438 96.234375 0.00390625 95.800781 0.00390625 95.355469 C 0.00390625 94.90625 0.0898438 94.476562 0.261719 94.0625 C 0.433594 93.648438 0.675781 93.285156 0.992188 92.96875 C 1.308594 92.652344 1.671875 92.410156 2.085938 92.238281 C 2.5 92.066406 2.929688 91.980469 3.378906 91.980469 C 3.824219 91.980469 4.257812 92.066406 4.671875 92.238281 C 5.082031 92.410156 5.449219 92.652344 5.765625 92.96875 C 6.082031 93.285156 6.324219 93.648438 6.496094 94.0625 C 6.667969 94.476562 6.753906 94.90625 6.753906 95.355469 Z M 6.753906 95.355469 " fill-opacity="1" fill-rule="nonzero"/></svg>