<svg xmlns="http://www.w3.org/2000/svg" xmlns:xlink="http://www.w3.org/1999/xlink" width="300" zoomAndPan="magnify" viewBox="0 0 224.87999 225" height="300" preserveAspectRatio="xMidYMid meet" version="1.0"><path fill="#343434" d="M 215.140625 103.519531 L 209.191406 112.347656 L 80.285156 25.527344 L 86.238281 16.703125 C 88.96875 12.640625 94.5 11.558594 98.546875 14.289062 L 212.730469 91.195312 C 216.789062 93.925781 217.871094 99.460938 215.140625 103.519531 Z M 173.617188 165.167969 L 180.164062 118.457031 L 197.296875 130.003906 Z M 161.480469 205.679688 C 160.804688 210.519531 156.308594 213.917969 151.46875 213.238281 L 15.136719 194.136719 C 10.296875 193.457031 6.890625 188.949219 7.582031 184.109375 L 15.949219 124.367188 L 169.863281 145.953125 Z M 20.382812 92.753906 C 21.0625 87.902344 25.554688 84.519531 30.394531 85.199219 L 166.726562 104.3125 C 171.582031 104.976562 174.976562 109.472656 174.28125 114.328125 L 172.808594 124.859375 L 18.894531 103.289062 Z M 68.410156 43.183594 L 145.070312 94.820312 L 43.238281 80.53125 Z M 216.296875 85.90625 L 102.128906 9 C 95.152344 4.304688 85.644531 6.140625 80.933594 13.132812 L 36.1875 79.550781 L 31.292969 78.871094 C 22.953125 77.699219 15.226562 83.539062 14.054688 91.875 L 1.269531 183.214844 C 0.0820312 191.550781 5.921875 199.28125 14.242188 200.449219 L 150.574219 219.566406 C 158.910156 220.734375 166.640625 214.882812 167.808594 206.5625 L 171.597656 179.601562 L 220.429688 107.074219 C 225.140625 100.109375 223.277344 90.601562 216.296875 85.90625 " fill-opacity="1" fill-rule="nonzero"/><path fill="#343434" d="M 89.546875 151.328125 L 155.285156 160.558594 L 156.007812 155.34375 L 90.28125 146.125 L 89.546875 151.328125 " fill-opacity="1" fill-rule="nonzero"/><path fill="#343434" d="M 87.984375 162.597656 L 153.710938 171.800781 L 154.429688 166.585938 L 88.707031 157.367188 L 87.984375 162.597656 " fill-opacity="1" fill-rule="nonzero"/></svg>