<svg xmlns="http://www.w3.org/2000/svg" xmlns:xlink="http://www.w3.org/1999/xlink" width="300" zoomAndPan="magnify" viewBox="0 0 224.87999 225" height="300" preserveAspectRatio="xMidYMid meet" version="1.0"><defs><clipPath id="eb22e3f96b"><path d="M 40 0.0585938 L 186 0.0585938 L 186 146 L 40 146 Z M 40 0.0585938 " clip-rule="nonzero"/></clipPath><clipPath id="410cbbf9d1"><path d="M 18 112 L 135 112 L 135 224.9375 L 18 224.9375 Z M 18 112 " clip-rule="nonzero"/></clipPath><clipPath id="7bf4779e32"><path d="M 110 112 L 206.890625 112 L 206.890625 224 L 110 224 Z M 110 112 " clip-rule="nonzero"/></clipPath></defs><g clip-path="url(#eb22e3f96b)"><path fill="#343434" d="M 113.136719 0.0664062 C 72.972656 0.0664062 40.367188 32.671875 40.367188 72.835938 C 40.367188 112.996094 72.972656 145.605469 113.136719 145.605469 C 153.300781 145.605469 185.90625 112.996094 185.90625 72.835938 C 185.90625 32.671875 153.300781 0.0664062 113.136719 0.0664062 Z M 113.136719 4.691406 C 150.746094 4.691406 181.277344 35.226562 181.277344 72.835938 C 181.277344 110.441406 150.746094 140.976562 113.136719 140.976562 C 75.527344 140.976562 44.996094 110.441406 44.996094 72.835938 C 44.996094 35.226562 75.527344 4.691406 113.136719 4.691406 " fill-opacity="1" fill-rule="evenodd"/></g><path fill="#343434" d="M 113.136719 15.234375 C 81.878906 15.234375 56.484375 41.035156 56.484375 72.835938 C 56.484375 104.636719 81.878906 130.433594 113.136719 130.433594 C 144.394531 130.433594 169.789062 104.636719 169.789062 72.835938 C 169.789062 41.035156 144.394531 15.234375 113.136719 15.234375 Z M 113.136719 19.863281 C 141.863281 19.863281 165.160156 43.609375 165.160156 72.835938 C 165.160156 102.058594 141.863281 125.804688 113.136719 125.804688 C 84.414062 125.804688 61.113281 102.058594 61.113281 72.835938 C 61.113281 43.609375 84.414062 19.863281 113.136719 19.863281 " fill-opacity="1" fill-rule="evenodd"/><g clip-path="url(#410cbbf9d1)"><path fill="#343434" d="M 129.929688 140.253906 L 92.515625 217.222656 C 87.074219 205.453125 72.648438 174.273438 72.648438 174.273438 C 72.183594 173.265625 71.066406 172.730469 69.992188 173 L 24.746094 184.210938 L 57.769531 116.261719 C 58.332031 115.113281 57.851562 113.726562 56.703125 113.167969 C 55.554688 112.609375 54.167969 113.089844 53.609375 114.238281 L 18.421875 186.636719 C 18.027344 187.441406 18.140625 188.40625 18.703125 189.101562 C 19.269531 189.800781 20.1875 190.109375 21.058594 189.894531 L 69.25 177.949219 C 73.195312 186.484375 90.367188 223.59375 90.367188 223.59375 C 90.742188 224.40625 91.550781 224.929688 92.445312 224.9375 C 93.339844 224.945312 94.15625 224.441406 94.546875 223.636719 L 134.089844 142.277344 C 134.648438 141.128906 134.167969 139.742188 133.023438 139.183594 C 131.871094 138.625 130.488281 139.105469 129.929688 140.253906 " fill-opacity="1" fill-rule="evenodd"/></g><path fill="#343434" d="M 115.386719 141.996094 L 93.253906 188.308594 L 81.023438 159.136719 C 80.570312 158.066406 79.402344 157.496094 78.28125 157.796875 C 78.28125 157.796875 56.4375 163.714844 46.390625 166.4375 L 66.402344 125.851562 C 66.964844 124.707031 66.492188 123.316406 65.347656 122.75 C 64.203125 122.1875 62.816406 122.660156 62.25 123.804688 L 39.976562 168.988281 C 39.574219 169.804688 39.6875 170.78125 40.261719 171.484375 C 40.839844 172.1875 41.777344 172.484375 42.65625 172.246094 C 42.65625 172.246094 69.921875 164.859375 77.535156 162.792969 L 90.984375 194.859375 C 91.335938 195.699219 92.148438 196.257812 93.0625 196.277344 C 93.972656 196.300781 94.8125 195.785156 95.203125 194.960938 L 119.5625 143.992188 C 120.113281 142.839844 119.625 141.457031 118.472656 140.90625 C 117.320312 140.355469 115.9375 140.847656 115.386719 141.996094 " fill-opacity="1" fill-rule="evenodd"/><g clip-path="url(#7bf4779e32)"><path fill="#343434" d="M 110.886719 182.214844 L 130.484375 222.164062 C 130.878906 222.96875 131.699219 223.472656 132.59375 223.460938 C 133.488281 223.449219 134.292969 222.921875 134.664062 222.109375 C 134.664062 222.109375 151.699219 184.933594 155.617188 176.386719 L 203.847656 188.152344 C 204.722656 188.367188 205.640625 188.054688 206.199219 187.355469 C 206.761719 186.65625 206.871094 185.695312 206.472656 184.886719 L 171.71875 114.039062 C 171.15625 112.894531 169.769531 112.417969 168.621094 112.980469 C 167.476562 113.542969 167.003906 114.933594 167.566406 116.078125 L 200.140625 182.484375 L 154.855469 171.4375 C 153.777344 171.175781 152.664062 171.714844 152.203125 172.722656 L 132.492188 215.746094 C 127.402344 205.375 115.042969 180.175781 115.042969 180.175781 C 114.480469 179.03125 113.09375 178.558594 111.945312 179.121094 C 110.800781 179.679688 110.324219 181.070312 110.886719 182.214844 " fill-opacity="1" fill-rule="evenodd"/></g><path fill="#343434" d="M 117.714844 168.601562 L 129.722656 193.492188 C 130.117188 194.316406 130.960938 194.828125 131.871094 194.800781 C 132.785156 194.777344 133.59375 194.21875 133.945312 193.375 C 133.945312 193.375 144.320312 168.382812 147.273438 161.261719 C 154.898438 163.296875 182.1875 170.585938 182.1875 170.585938 C 183.066406 170.820312 184.003906 170.519531 184.578125 169.8125 C 185.152344 169.109375 185.261719 168.132812 184.859375 167.320312 L 163.335938 124.058594 C 162.765625 122.917969 161.375 122.449219 160.230469 123.019531 C 159.089844 123.589844 158.621094 124.976562 159.191406 126.121094 L 178.429688 164.792969 L 146.511719 156.269531 C 145.390625 155.96875 144.21875 156.546875 143.773438 157.617188 L 131.648438 186.835938 C 128.175781 179.628906 121.882812 166.589844 121.882812 166.589844 C 121.328125 165.441406 119.945312 164.957031 118.792969 165.511719 C 117.644531 166.066406 117.160156 167.449219 117.714844 168.601562 " fill-opacity="1" fill-rule="evenodd"/><path fill="#343434" d="M 109.820312 43.140625 L 109.816406 43.140625 L 109.777344 43.160156 C 109.722656 43.175781 109.667969 43.195312 109.609375 43.214844 C 107.84375 43.867188 99.226562 47.046875 98.636719 47.261719 C 94.527344 48.648438 92.460938 51.394531 91.679688 54.210938 C 89.898438 60.605469 95.261719 68.355469 103.199219 66.933594 L 103.199219 98.808594 C 103.199219 104.964844 108.1875 108.359375 113.527344 108.316406 C 118.847656 108.277344 123.785156 104.78125 123.785156 98.808594 L 123.785156 53.386719 C 123.785156 48.308594 121.789062 45.292969 119.46875 43.703125 C 116.902344 41.945312 113.449219 41.589844 109.820312 43.140625 Z M 111.371094 47.492188 C 111.320312 47.515625 111.269531 47.535156 111.210938 47.558594 C 109.382812 48.230469 100.207031 51.617188 100.207031 51.617188 C 100.183594 51.625 100.160156 51.632812 100.136719 51.640625 C 97.820312 52.414062 96.578125 53.871094 96.136719 55.453125 C 95.101562 59.179688 98.558594 63.691406 103.375 62.125 C 103.378906 62.121094 103.386719 62.121094 103.394531 62.117188 L 104.652344 61.613281 L 107.828125 63.773438 C 107.828125 63.773438 107.828125 64.175781 107.828125 64.742188 C 107.828125 70.421875 107.828125 98.808594 107.828125 98.808594 C 107.828125 102.089844 110.648438 103.710938 113.492188 103.691406 C 116.335938 103.667969 119.15625 102 119.15625 98.808594 L 119.15625 53.386719 C 119.15625 50.367188 118.230469 48.46875 116.851562 47.519531 C 115.464844 46.570312 113.59375 46.558594 111.636719 47.398438 L 111.632812 47.390625 L 111.632812 47.398438 C 111.546875 47.433594 111.457031 47.464844 111.371094 47.492188 " fill-opacity="1" fill-rule="evenodd"/></svg>