<svg xmlns="http://www.w3.org/2000/svg" xmlns:xlink="http://www.w3.org/1999/xlink" width="300" zoomAndPan="magnify" viewBox="0 0 224.87999 225" height="300" preserveAspectRatio="xMidYMid meet" version="1.0"><defs><clipPath id="13b44c2daf"><path d="M 59.3125 0.0585938 L 165.753906 0.0585938 L 165.753906 224.9375 L 59.3125 224.9375 Z M 59.3125 0.0585938 " clip-rule="nonzero"/></clipPath></defs><g clip-path="url(#13b44c2daf)"><path fill="#545454" d="M 141.054688 37.355469 L 165.566406 37.355469 L 165.566406 0.398438 L 134.265625 0.398438 L 134.265625 0.539062 C 93.113281 2.046875 84.625 25.101562 83.917969 49.472656 L 83.824219 49.472656 L 83.824219 75.117188 L 59.3125 75.117188 L 59.3125 112.121094 L 83.824219 112.121094 L 83.824219 224.601562 L 127.808594 224.601562 L 127.808594 112.121094 L 159.34375 112.121094 L 165.566406 75.117188 L 127.808594 75.117188 L 127.808594 52.160156 C 127.808594 44.003906 133.277344 37.355469 141.054688 37.355469 Z M 141.054688 37.355469 " fill-opacity="1" fill-rule="nonzero"/></g></svg>